<svg width="120" height="121" viewBox="0 0 120 121" fill="none" xmlns="http://www.w3.org/2000/svg">
<path d="M6.64649 91.06L48.4465 115.352C49.3324 115.868 50.7596 115.868 51.6456 115.36L115.159 78.6854C116.045 78.1768 116.045 77.3483 115.159 76.8316L73.3592 52.5401C72.4815 52.0316 71.0543 52.0316 70.1683 52.5401L6.6547 89.2063C5.76879 89.723 5.76058 90.5515 6.64649 91.06Z" fill="#AABAFD"/>
<path d="M56.0413 93.5285C55.5419 93.8169 55.5448 94.2867 56.0411 94.5751L66.3449 100.563C66.8411 100.851 67.6523 100.855 68.1518 100.566L88.4566 88.8433C88.9561 88.5549 88.9531 88.0851 88.4569 87.7967L78.153 81.8087C77.6568 81.5204 76.8456 81.5171 76.3462 81.8055L56.0413 93.5285Z" fill="#2E4277"/>
<path d="M5.9903 90.1412L5.9985 92.5863C5.9985 92.9144 6.21995 93.2507 6.65471 93.505L48.4547 117.796C49.3406 118.305 50.7679 118.305 51.6538 117.796L115.167 81.1303C115.61 80.876 115.832 80.5398 115.832 80.1952L115.824 77.7583C115.824 78.0946 115.602 78.4309 115.159 78.6852L51.6456 115.36C50.7597 115.868 49.3324 115.868 48.4465 115.351L6.6465 91.0599C6.20358 90.8056 5.9903 90.4775 5.9903 90.1412Z" fill="#798FFE"/>
<path d="M70.0447 4.17246C70.9298 3.66147 71.6496 4.07166 71.6525 5.08868L71.7658 49.7734C71.7686 50.7844 71.0535 52.0291 70.1684 52.5401L7.57002 88.6779C6.68495 89.1889 5.96512 88.7727 5.96224 87.7616L5.84901 43.077C5.84613 42.0599 6.56128 40.8212 7.44635 40.3103L70.0447 4.17246Z" fill="#1B2A4F"/>
<path d="M4.16803 42.1029L4.28287 86.7859C4.28287 87.2863 4.46335 87.6472 4.75044 87.8113L6.42933 88.7876C6.1422 88.6236 5.96177 88.2627 5.96177 87.7623L5.84693 43.0793C5.84693 42.0621 6.56057 40.8235 7.44648 40.3068L70.0452 4.17307C70.4881 3.91879 70.8901 3.89422 71.1854 4.05823L69.5065 3.08189C69.2194 2.91782 68.8093 2.9424 68.3663 3.19668L5.76758 39.3386C4.88167 39.8472 4.16803 41.0858 4.16803 42.1029Z" fill="#384E85"/>
<path d="M8.10846 42.5318L8.2174 85.7L69.5065 50.3181L69.3976 7.1499L8.10846 42.5318Z" fill="#384E85"/>
<path d="M8.10846 42.5318L8.12675 49.7723L69.4158 14.3905L69.3976 7.1499L8.10846 42.5318Z" fill="#AABAFD"/>
<path d="M59.2921 15.7161C59.883 15.375 60.3633 15.637 60.3652 16.3159C60.3671 16.9949 59.8899 17.8215 59.299 18.1627C58.7183 18.498 58.2379 18.2242 58.236 17.5453C58.2341 16.8663 58.7114 16.0514 59.2921 15.7161Z" fill="white"/>
<path d="M62.7048 13.7455C63.2855 13.4102 63.7659 13.6723 63.7678 14.3512C63.7697 15.0301 63.2925 15.8568 62.7118 16.1921C62.1209 16.5332 61.6405 16.2594 61.6386 15.5805C61.6367 14.9016 62.114 14.0866 62.7048 13.7455Z" fill="white"/>
<path d="M66.1075 11.7811C66.6984 11.4399 67.1787 11.7019 67.1806 12.3809C67.1825 13.0598 66.7053 13.8865 66.1144 14.2276C65.5235 14.5688 65.0432 14.295 65.0413 13.616C65.0393 12.9371 65.5166 12.1222 66.1075 11.7811Z" fill="white"/>
<path d="M19.4649 88.0613L15.4528 90.3929L13.7245 89.395L17.7365 87.0635L19.4649 88.0613Z" fill="#384E85"/>
<path d="M62.6343 62.9739L58.6168 65.3087L56.8884 64.3108L60.906 61.9761L62.6343 62.9739Z" fill="#384E85"/>
<path d="M73.4267 56.702L69.4092 59.0367L67.6808 58.0389L71.6984 55.7041L73.4267 56.702Z" fill="#384E85"/>
<path d="M66.226 71.3023L62.214 73.6339L58.6465 71.5742L62.6586 69.2427L66.226 71.3023Z" fill="#384E85"/>
<path d="M86.0147 70.224L81.9972 72.5588L78.4242 70.4959L82.4417 68.1611L86.0147 70.224Z" fill="#384E85"/>
<path d="M91.4137 67.0866L87.3961 69.4213L79.3251 64.7615L83.3427 62.4268L91.4137 67.0866Z" fill="#384E85"/>
<path d="M77.9248 59.2987L70.5171 63.6036L66.9441 61.5407L74.3518 57.2358L77.9248 59.2987Z" fill="#384E85"/>
<path d="M69.1413 64.4032L65.1237 66.738L61.5507 64.6751L65.5683 62.3403L69.1413 64.4032Z" fill="#384E85"/>
<path d="M82.4173 61.8927L73.0008 67.3649L69.4334 65.3053L78.8499 59.833L82.4173 61.8927Z" fill="#384E85"/>
<path d="M71.6249 68.1642L67.6073 70.4989L64.0399 68.4392L68.0575 66.1045L71.6249 68.1642Z" fill="#384E85"/>
<path d="M76.1231 70.7611L72.1056 73.0959L68.5326 71.033L72.5501 68.6982L76.1231 70.7611Z" fill="#384E85"/>
<path d="M63.7423 67.5409L59.7248 69.8756L56.1518 67.8128L60.1693 65.478L63.7423 67.5409Z" fill="#384E85"/>
<path d="M57.2354 66.1111L53.2234 68.4427L51.4951 67.4448L55.5071 65.1133L57.2354 66.1111Z" fill="#384E85"/>
<path d="M51.8421 69.2459L47.8246 71.5806L46.0963 70.5828L50.1138 68.248L51.8421 69.2459Z" fill="#384E85"/>
<path d="M54.5384 83.305L50.5208 85.6398L46.9478 83.5769L50.9654 81.2422L54.5384 83.305Z" fill="#384E85"/>
<path d="M46.4431 72.3831L42.431 74.7146L40.7027 73.7168L44.7148 71.3853L46.4431 72.3831Z" fill="#384E85"/>
<path d="M52.9501 73.8128L48.938 76.1444L45.365 74.0816L49.3771 71.75L52.9501 73.8128Z" fill="#384E85"/>
<path d="M41.0496 75.5174L37.032 77.8521L35.3037 76.8543L39.3213 74.5195L41.0496 75.5174Z" fill="#384E85"/>
<path d="M47.5566 76.9471L43.539 79.2819L39.9661 77.219L43.9836 74.8843L47.5566 76.9471Z" fill="#384E85"/>
<path d="M55.4337 77.5738L51.4217 79.9054L47.8542 77.8457L51.8663 75.5142L55.4337 77.5738Z" fill="#384E85"/>
<path d="M35.6563 78.6517L31.6387 80.9864L29.9104 79.9886L33.9279 77.6538L35.6563 78.6517Z" fill="#384E85"/>
<path d="M42.1632 80.0814L38.1456 82.4162L34.5726 80.3533L38.5902 78.0186L42.1632 80.0814Z" fill="#384E85"/>
<path d="M59.9318 80.1708L55.9197 82.5023L52.3467 80.4395L56.3588 78.1079L59.9318 80.1708Z" fill="#384E85"/>
<path d="M50.0402 80.7081L46.0227 83.0428L42.4553 80.9832L46.4728 78.6484L50.0402 80.7081Z" fill="#384E85"/>
<path d="M30.2574 81.7894L26.2398 84.1241L24.5115 83.1262L28.5291 80.7915L30.2574 81.7894Z" fill="#384E85"/>
<path d="M36.7642 83.2191L32.7466 85.5539L29.1736 83.491L33.1912 81.1562L36.7642 83.2191Z" fill="#384E85"/>
<path d="M44.6468 83.8424L40.6293 86.1771L37.0619 84.1175L41.0794 81.7827L44.6468 83.8424Z" fill="#384E85"/>
<path d="M31.3707 86.3534L27.3532 88.6881L23.7802 86.6253L27.7978 84.2905L31.3707 86.3534Z" fill="#384E85"/>
<path d="M49.1449 86.4393L45.1274 88.7741L41.5544 86.7112L45.572 84.3765L49.1449 86.4393Z" fill="#384E85"/>
<path d="M39.248 86.9801L35.2304 89.3148L31.663 87.2551L35.6805 84.9204L39.248 86.9801Z" fill="#384E85"/>
<path d="M43.7461 89.577L39.7285 91.9118L36.1555 89.8489L40.1731 87.5142L43.7461 89.577Z" fill="#384E85"/>
<path d="M64.661 82.6336L44.2265 94.5089L40.6535 92.446L61.088 80.5708L64.661 82.6336Z" fill="#384E85"/>
<path d="M38.3525 92.7113L34.3349 95.0461L30.762 92.9832L34.7795 90.6484L38.3525 92.7113Z" fill="#384E85"/>
<path d="M33.8545 90.1143L24.4435 95.5834L20.876 93.5238L30.2871 88.0547L33.8545 90.1143Z" fill="#384E85"/>
<path d="M32.9536 95.849L28.9415 98.1805L25.3685 96.1177L29.3806 93.7861L32.9536 95.849Z" fill="#384E85"/>
<path d="M42.8506 95.3085L33.4396 100.778L29.8666 98.7147L39.2776 93.2456L42.8506 95.3085Z" fill="#384E85"/>
<path d="M24.8637 84.9236L20.8462 87.2584L19.1179 86.2605L23.1354 83.9258L24.8637 84.9236Z" fill="#384E85"/>
<path d="M68.0278 59.8397L64.0103 62.1744L62.282 61.1765L66.2995 58.8418L68.0278 59.8397Z" fill="#384E85"/>
<path d="M58.3489 70.6751L54.3313 73.0099L50.7583 70.947L54.7759 68.6123L58.3489 70.6751Z" fill="#384E85"/>
<path d="M69.8289 79.6302L65.8113 81.965L62.2383 79.9021L66.2559 77.5674L69.8289 79.6302Z" fill="#384E85"/>
<path d="M65.3309 77.0336L61.3133 79.3683L57.7403 77.3055L61.7579 74.9707L65.3309 77.0336Z" fill="#384E85"/>
<path d="M60.8327 74.4361L56.8151 76.7709L53.2477 74.7112L57.2653 72.3765L60.8327 74.4361Z" fill="#384E85"/>
<path d="M80.6212 73.3583L76.6037 75.693L73.0307 73.6301L77.0483 71.2954L80.6212 73.3583Z" fill="#384E85"/>
<path d="M75.2222 76.496L71.2101 78.8275L67.6371 76.7647L71.6492 74.4331L75.2222 76.496Z" fill="#384E85"/>
<path d="M25.9717 89.4906L19.9509 92.9896L16.3779 90.9267L22.3988 87.4277L25.9717 89.4906Z" fill="#384E85"/>
<path d="M13.8058 53.9416C14.5837 53.4925 15.0429 53.5908 15.3716 53.8886L14.9301 54.6045C14.6477 54.3198 14.2852 54.343 13.8423 54.5987C12.9412 55.1189 12.3697 56.2512 12.3728 57.3397C12.3759 58.4238 12.952 58.9023 13.8531 58.3821C14.2959 58.1264 14.6574 57.7183 14.9372 57.1179L15.3814 57.3268C15.0554 58.007 14.5982 58.6344 13.8203 59.0835C12.5495 59.8172 11.6914 59.1868 11.6873 57.7354C11.6832 56.284 12.535 54.6753 13.8058 53.9416Z" fill="#D9DDF6"/>
<path d="M16.6706 56.2991C16.9325 56.1479 17.1566 56.2756 17.1574 56.5765C17.1583 56.8818 16.9356 57.263 16.6737 57.4142C16.408 57.5676 16.1878 57.4421 16.187 57.1368C16.1861 56.8359 16.4049 56.4525 16.6706 56.2991Z" fill="#D9DDF6"/>
<path d="M17.0032 53.0992C17.193 52.7726 17.1935 52.4187 17.0043 52.3088C16.8152 52.1989 16.508 52.3745 16.3182 52.7011C16.1284 53.0277 16.1278 53.3816 16.317 53.4915C16.5062 53.6015 16.8134 53.4258 17.0032 53.0992Z" fill="#D9DDF6"/>
<path d="M18.1441 49.4868L20.2555 55.4481L19.7356 55.7482L17.6242 49.787L18.1441 49.4868Z" fill="#D9DDF6"/>
<path d="M22.2589 46.4243L25.9446 48.5291L22.2828 54.8761L21.6917 54.5392L24.7739 49.205L21.6716 47.4415L22.2589 46.4243Z" fill="#D9DDF6"/>
<path d="M30.0603 48.5376L30.0648 50.1217L26.21 52.3473L26.2055 50.7631L30.0603 48.5376Z" fill="#D9DDF6"/>
</svg>
