<svg width="120" height="121" viewBox="0 0 120 121" fill="none" xmlns="http://www.w3.org/2000/svg">
<path opacity="0.34" d="M18.5391 111.87C28.0013 111.87 35.6719 110.37 35.6719 108.519C35.6719 106.668 28.0013 105.167 18.5391 105.167C9.07687 105.167 1.40625 106.668 1.40625 108.519C1.40625 110.37 9.07687 111.87 18.5391 111.87Z" fill="#575FA8"/>
<path d="M20.414 102.472L20.0624 108.19H30.2812C30.2812 108.19 26.1093 105.401 24.2577 104.511L24.0468 102.495H20.414V102.472Z" fill="#F08789"/>
<path d="M23.5781 57.0967L24.2578 104.019H20.2266C20.2266 104.019 15.7734 85.6436 17.9531 80.2764L14.0625 57.0967H23.5781V57.0967Z" fill="#32388D"/>
<path opacity="0.2" d="M23.578 57.0967H14.0859L17.9765 80.2764C17.2265 82.1279 17.2499 85.5498 17.6249 89.2295L24.164 97.2217L23.578 57.0967Z" fill="#020203"/>
<path d="M9.63289 103.222L8.06258 108.94H19.2188C19.2188 108.94 14.5079 106.151 12.6329 105.261L12.9845 103.245H9.63289V103.222Z" fill="#F08789"/>
<path d="M23.8595 56.5107L19.8986 80.042L13.2189 104.019H9.21109C9.21109 104.019 10.5002 81.0029 14.6252 78.6123L11.3673 56.5342H23.8595V56.5107Z" fill="#32388D"/>
<path opacity="0.2" d="M23.6016 58.1279L23.8594 56.5107H11.3672L11.6484 58.4326L23.625 59.9561L23.6016 58.1279Z" fill="#020203"/>
<path d="M30.3048 40.2686C30.3048 40.2686 32.7892 36.2607 36.6564 35.3467L35.133 37.1748C35.133 37.1748 35.8595 39.0732 34.9455 40.0342C34.0314 40.9951 32.5548 41.0654 32.5548 41.0654L31.5236 42.2139L30.3048 40.2686Z" fill="#F5ABAE"/>
<path d="M20.4844 36.9873L23.8828 43.9248L30.5391 39.4248L32.2031 41.9795C32.2031 41.9795 26.4141 52.8545 23.8594 52.0576C21.3047 51.2608 19.1016 45.5186 19.1016 45.5186L20.4844 36.9873Z" fill="white"/>
<path opacity="0.2" d="M23.8594 43.9248L20.4609 36.9873L19.1016 45.5186C19.1016 45.5186 21.3047 51.2607 23.8594 52.0576C23.9297 52.0811 23.9766 52.0811 24.0469 52.0811L27.1172 41.6982L23.8594 43.9248Z" fill="#020203"/>
<path d="M23.0625 20.6044C23.0625 20.6044 23.461 24.1435 23.8594 25.0107H22.7579C22.7579 25.0107 22.8516 28.4091 22.1485 28.831C21.6563 29.1357 20.2266 28.831 19.8985 29.2294C19.5704 29.6279 19.0782 32.4638 19.0782 32.4638L14.6485 32.0888L15.0938 28.1279C15.0938 28.1279 12.6094 25.1513 13.3594 21.495C14.1094 17.8388 22.4063 17.206 23.0625 20.6044Z" fill="#F5ABAE"/>
<path opacity="0.2" d="M17.5313 26.5107L14.0391 26.3232C14.5548 27.4248 15.1173 28.1045 15.1173 28.1045L14.672 32.0654L19.1016 32.4404C19.1016 32.4404 19.5938 29.6045 19.922 29.2061C20.0391 29.0654 20.3204 28.9951 20.6485 28.9951C18.9376 28.5264 17.3907 26.6045 17.5313 26.5107Z" fill="#020203"/>
<path d="M23.2033 21.7763C23.2033 21.7763 22.2658 22.3388 20.3908 21.0966C20.3908 21.0966 19.1252 23.37 18.0236 23.0653C18.0236 23.0653 17.9767 24.6825 17.7424 24.7997C17.508 24.9169 17.0392 23.4169 16.5705 23.3231C16.1017 23.2294 15.6096 23.6981 16.1252 25.1044C16.6174 26.5106 17.5314 26.5106 17.5314 26.5106L15.0939 28.1278C15.0939 28.1278 13.1721 27.5185 12.7971 25.9247C12.7971 25.9247 10.3596 23.5575 11.8361 21.87C11.8361 21.87 10.2189 20.5106 13.9924 18.8466C13.9924 18.8466 14.883 15.5653 16.6408 17.0653C16.6408 17.0653 19.8986 14.6278 20.6955 16.8075C20.6955 16.8075 24.8908 16.456 25.1486 18.7294C25.4064 21.0028 24.3986 21.5419 24.3986 21.5419C24.3986 21.5419 24.633 23.4169 23.4611 23.5106L23.2033 21.7763Z" fill="#212226"/>
<path d="M11.5781 36.6824C11.5781 36.6824 9.37495 36.1433 9.74995 33.7996C10.1249 31.4324 13.2187 30.3777 19.5703 31.8543C20.3203 32.0183 20.9062 33.2605 20.414 34.3387C20.414 34.3387 22.4531 39.3543 23.0859 43.4558C23.7187 47.5574 24.0468 51.8465 24.7499 53.8386C25.4296 55.8308 24.8671 58.0574 22.9687 58.0574C21.0937 58.0574 13.6874 58.0574 11.3906 58.0574C9.0937 58.0574 8.81245 54.8699 9.72651 51.5418C10.6171 48.2371 11.9531 39.073 11.5781 36.6824Z" fill="#444496"/>
<path d="M16.7346 35.3934C20.344 36.1669 17.8362 43.3387 17.1096 45.3778C16.3831 47.4403 15.5862 49.2684 16.7346 50.8622C17.8831 52.4559 19.8987 54.2372 19.8987 54.2372L18.5393 57.0966C18.5393 57.0966 11.0159 56.1356 9.21119 53.9091C7.42995 51.6825 8.43776 46.7137 9.98463 43.2919C11.5315 39.87 14.0393 34.8309 16.7346 35.3934Z" fill="white"/>
<path d="M18.3283 57.589C18.2346 57.5421 18.2111 57.4484 18.2346 57.3546L20.0627 53.3703C20.1096 53.2765 20.2033 53.2531 20.2971 53.2765C20.3908 53.3234 20.4143 53.4171 20.3908 53.5109L18.5627 57.4953C18.5158 57.589 18.4221 57.6125 18.3283 57.589Z" fill="#A77071"/>
<path d="M16.617 71.1592C16.617 71.7451 16.1483 72.2373 15.5389 72.2373C14.953 72.2373 14.4608 71.7451 14.4608 71.1592C14.4608 70.5732 14.9295 70.0811 15.5389 70.0811C16.1483 70.1045 16.617 70.5732 16.617 71.1592Z" fill="#59BCAB"/>
<path d="M9.91391 70.8779C8.41391 70.8779 7.19516 69.6592 7.19516 68.1592C7.19516 66.6592 8.41391 65.4404 9.91391 65.4404C11.4139 65.4404 12.6327 66.6592 12.6327 68.1592C12.6327 69.6592 11.4139 70.8779 9.91391 70.8779ZM9.91391 66.8701C9.18735 66.8701 8.62485 67.4561 8.62485 68.1592C8.62485 68.8623 9.21078 69.4482 9.91391 69.4482C10.6405 69.4482 11.203 68.8623 11.203 68.1592C11.203 67.4561 10.6405 66.8701 9.91391 66.8701Z" fill="#FCC450"/>
<path d="M88.0781 17.6982H87.1875V18.6123C87.1875 19.0342 86.8593 19.3623 86.4375 19.3623C86.0156 19.3623 85.6875 19.0342 85.6875 18.6123V17.6982H84.7734C84.3515 17.6982 84.0234 17.3701 84.0234 16.9482C84.0234 16.5264 84.3515 16.1982 84.7734 16.1982H85.6875V15.2842C85.6875 14.8623 86.0156 14.5342 86.4375 14.5342C86.8593 14.5342 87.1875 14.8623 87.1875 15.2842V16.1982H88.1015C88.5234 16.1982 88.8515 16.5264 88.8515 16.9482C88.8281 17.3701 88.5 17.6982 88.0781 17.6982Z" fill="#59BCAB"/>
<path d="M95.4375 12.9639C95.4375 13.5498 94.9687 14.042 94.3594 14.042C93.7734 14.042 93.2812 13.5732 93.2812 12.9639C93.2812 12.3779 93.7734 11.8857 94.3594 11.8857C94.9453 11.8857 95.4375 12.3545 95.4375 12.9639Z" fill="#345185"/>
<path d="M39.9609 37.0811C36.7266 28.9717 38.3906 19.3857 44.9531 12.8232C48.1172 9.65918 51.9844 7.62012 56.0625 6.75293L58.4766 17.6982C53.3906 18.7998 49.5938 23.3232 49.5938 28.7373C49.5938 30.2139 49.875 31.6201 50.3906 32.9326L39.9609 37.0811Z" fill="#345185"/>
<path d="M44.9531 44.6514C44.789 44.4873 44.6015 44.2998 44.4374 44.1123L52.6171 36.4482C54.6796 38.6514 57.6093 40.0107 60.8671 40.0107C67.1015 40.0107 72.164 34.9482 72.164 28.7139C72.164 24.2607 69.6093 20.417 65.8593 18.5889L70.8281 8.53418C72.9843 9.58887 74.9999 11.0186 76.7812 12.7998C85.5702 21.5889 85.5702 35.8623 76.7812 44.6514C68.0156 53.4404 53.7421 53.4404 44.9531 44.6514Z" fill="white"/>
<path d="M60.8908 17.4403C60.047 17.4403 59.2501 17.534 58.4767 17.6981L56.0861 6.75276C61.008 5.67464 66.2345 6.26058 70.8517 8.55745L65.883 18.6121C64.383 17.8387 62.672 17.4403 60.8908 17.4403Z" fill="#59BCAB"/>
<path d="M44.4375 44.1123C42.4688 42.0029 40.9687 39.6123 39.9609 37.0811L50.3906 32.9326C50.9062 34.2451 51.6797 35.4404 52.6406 36.4717L44.4375 44.1123Z" fill="#C1E4EE"/>
<path d="M112.195 23.7217V99.1436C112.195 100.409 111.164 101.44 109.898 101.44H61.6638C60.3982 101.44 59.367 100.409 59.367 99.1436V23.7217C59.367 22.4561 60.3982 21.4014 61.6638 21.4014H109.875C111.164 21.4014 112.195 22.4326 112.195 23.7217Z" fill="#4FBECB"/>
<path d="M54.0465 103.597H117.515C118.101 103.597 118.593 103.128 118.593 102.519C118.593 101.933 118.125 101.44 117.515 101.44H54.0465C53.4606 101.44 52.9684 101.909 52.9684 102.519C52.9684 103.128 53.4606 103.597 54.0465 103.597Z" fill="#E2E2E1"/>
<path d="M112.195 23.6982V29.3232H59.367V23.6982C59.367 22.4326 60.3982 21.3779 61.6638 21.3779H109.875C111.164 21.4014 112.195 22.4326 112.195 23.6982Z" fill="#4FBECB"/>
<path d="M85.781 99.4482C84.5857 99.4482 83.6248 98.4873 83.6248 97.292C83.6248 96.0967 84.5857 95.1357 85.781 95.1357C86.9763 95.1357 87.9373 96.0967 87.9373 97.292C87.9607 98.4873 86.9763 99.4482 85.781 99.4482Z" fill="#E6F2EA"/>
<path d="M65.4606 26.1826C64.9684 26.1826 64.5699 25.7842 64.5699 25.292C64.5699 24.7998 64.9684 24.4014 65.4606 24.4014C65.9528 24.4014 66.3512 24.7998 66.3512 25.292C66.3278 25.7842 65.9293 26.1826 65.4606 26.1826Z" fill="#E6F2EA"/>
<path d="M68.2497 26.1826C67.7575 26.1826 67.3591 25.7842 67.3591 25.292C67.3591 24.7998 67.7575 24.4014 68.2497 24.4014C68.7419 24.4014 69.1403 24.7998 69.1403 25.292C69.1403 25.7842 68.7419 26.1826 68.2497 26.1826Z" fill="#E6F2EA"/>
<path d="M111.375 29.3232H60.1873V92.8154H111.375V29.3232Z" fill="#D2EBF7"/>
<path d="M69.3495 50.6045V43.0811H52.4042V50.6045H69.3495Z" fill="#A9DAE5"/>
<path d="M79.6902 69.749V62.2256H62.7448V69.749H79.6902Z" fill="#A9DAE5"/>
<path d="M74.5317 60.189V52.6655H57.5864V60.189H74.5317Z" fill="#A9DAE5"/>
<path d="M108.445 31.9951H62.7421V40.5498H108.445V31.9951Z" fill="#EDF6F4"/>
<path d="M107.062 33.2139H100.992V39.2842H107.062V33.2139Z" fill="#D2E8F2"/>
<path d="M78.8435 33.5889H65.6951V34.7607H78.8435V33.5889Z" fill="#ACD8C8"/>
<path d="M78.8435 35.6748H65.6951V36.8467H78.8435V35.6748Z" fill="#ACD8C8"/>
<path d="M74.5545 37.7607H65.6951V38.9326H74.5545V37.7607Z" fill="#ACD8C8"/>
<path opacity="0.5" d="M117.07 68.5342H79.6871V86.0889H117.07V68.5342Z" fill="#96CEB8"/>
<path d="M98.0856 74.6045H83.4138V76.0811H98.0856V74.6045Z" fill="#E6F2EA"/>
<path d="M94.5934 77.2295H83.4138V78.7061H94.5934V77.2295Z" fill="#E6F2EA"/>
<path d="M90.9606 79.8779H83.4138V81.3545H90.9606V79.8779Z" fill="#E6F2EA"/>
<path d="M96.398 79.8779H91.898V81.3545H96.398V79.8779Z" fill="#E6F2EA"/>
<path d="M93.6091 82.5029H83.4138V83.9795H93.6091V82.5029Z" fill="#E6F2EA"/>
<path d="M76.242 72.5654H62.7421V86.0654H76.242V72.5654Z" fill="#9FD2BA"/>
<path d="M72.4776 82.3434C74.1251 80.6959 74.1251 78.0248 72.4776 76.3773C70.83 74.7298 68.1589 74.7298 66.5114 76.3773C64.8639 78.0248 64.8639 80.6959 66.5114 82.3434C68.1589 83.9909 70.83 83.9909 72.4776 82.3434Z" fill="#7CC39E"/>
<path d="M72.7032 79.3623C72.7032 80.417 72.1876 81.3545 71.3907 81.9404C71.1563 82.1045 70.8985 82.2686 70.6173 82.3623C70.5001 82.4092 70.3595 82.4561 70.2423 82.4795C70.172 82.5029 70.0782 82.5029 70.0079 82.5264C69.8438 82.5498 69.6798 82.5732 69.5157 82.5732C69.1876 82.5732 68.8595 82.5264 68.5548 82.4326C67.2423 82.0342 66.3048 80.8154 66.3048 79.3623C66.3048 78.8701 66.4219 78.3779 66.6329 77.9561C66.8907 77.4404 67.2657 76.9951 67.7345 76.6904C67.8516 76.6201 67.9688 76.5498 68.086 76.4795C68.3438 76.3389 68.6251 76.2451 68.9298 76.1982C69.1173 76.1514 69.3282 76.1514 69.5157 76.1514C70.8751 76.1514 72.0469 76.9951 72.4923 78.1904C72.6094 78.5654 72.7032 78.9404 72.7032 79.3623Z" fill="#EFF4F4"/>
<path d="M69.4923 79.7373C69.2813 79.7373 69.1173 79.5732 69.1173 79.3623V77.2998C69.1173 77.0889 69.2813 76.9248 69.4923 76.9248C69.7032 76.9248 69.8673 77.0889 69.8673 77.2998V79.3623C69.8673 79.5732 69.7032 79.7373 69.4923 79.7373Z" fill="#C1D6CF"/>
<path d="M69.4922 79.7369C69.3751 79.7369 69.2579 79.6666 69.1876 79.5728C69.0704 79.4088 69.1407 79.1744 69.3047 79.0572L70.3594 78.3775C70.5235 78.2603 70.7578 78.3307 70.875 78.4947C70.9922 78.6588 70.9219 78.8932 70.7578 79.0103L69.7032 79.69C69.6329 79.7135 69.5625 79.7369 69.4922 79.7369Z" fill="#C1D6CF"/>
<path d="M108.445 43.0811H81.7731V69.7529H108.445V43.0811Z" fill="#98D5E9"/>
<path d="M95.1091 57.6123C93.2341 57.6123 91.7107 56.0889 91.7107 54.2139V52.1748C91.7107 50.2998 93.2341 48.7764 95.1091 48.7764C96.9841 48.7764 98.5076 50.2998 98.5076 52.1748V54.2139C98.5076 56.0889 96.9841 57.6123 95.1091 57.6123Z" fill="#F8FCFA"/>
<path d="M95.1092 55.8779C91.8982 55.8779 89.156 57.7529 87.867 60.4717C87.117 62.0654 88.2654 63.8936 90.0232 63.8936H100.219C101.976 63.8936 103.125 62.0654 102.375 60.4717C101.086 57.7529 98.3201 55.8779 95.1092 55.8779Z" fill="#F8FCFA"/>
<path d="M108.44 89.1484V86.9688L62.7368 86.9687V89.1484L108.44 89.1484Z" fill="#FFE1AB"/>
<path d="M111.867 42.2139V34.2686C112.429 34.2686 112.898 34.7373 112.898 35.2998V41.2061C112.898 41.7686 112.429 42.2139 111.867 42.2139Z" fill="#4FBECB"/>
<path d="M111.867 51.0967V43.1514C112.429 43.1514 112.898 43.6201 112.898 44.1826V50.0889C112.898 50.6279 112.429 51.0967 111.867 51.0967Z" fill="#4FBECB"/>
<path opacity="0.3" d="M89.8826 29.3232L60.1873 59.0185V43.0576L73.9216 29.3232H89.8826Z" fill="#F6FBFD"/>
<path opacity="0.3" d="M100.992 29.3232L60.1873 70.1279V62.1592L93.0232 29.3232H100.992Z" fill="#F6FBFD"/>
<path opacity="0.3" d="M70.7809 75.0264V81.8701C70.7809 82.1514 70.5934 82.4092 70.3356 82.4795V101.417H61.6872C60.4216 101.417 59.3903 100.386 59.3903 99.1201V61.0811H68.7419C69.6325 61.0811 70.3356 61.8076 70.3356 62.6748V74.417C70.5934 74.5107 70.7809 74.7451 70.7809 75.0264Z" fill="#385F82"/>
<path d="M64.1953 57.917V110.276C64.1953 111.167 63.4687 111.87 62.6016 111.87H35.1094C34.2422 111.87 33.5156 111.167 33.5156 110.276V57.917C33.5156 57.0264 34.2422 56.3232 35.1094 56.3232H62.5781C63.4687 56.3232 64.1953 57.0264 64.1953 57.917Z" fill="#5BB98E"/>
<path d="M64.1953 57.917V61.831H33.5156V57.917C33.5156 57.0264 34.2422 56.3232 35.1094 56.3232H62.6016C63.4687 56.3232 64.1953 57.0498 64.1953 57.917Z" fill="#5BB98E"/>
<path d="M48.8437 110.511C48.0234 110.511 47.3438 109.831 47.3438 109.011C47.3438 108.19 48.0234 107.511 48.8437 107.511C49.6641 107.511 50.3437 108.19 50.3437 109.011C50.3437 109.831 49.6875 110.511 48.8437 110.511Z" fill="#E6F2EA"/>
<path d="M43.289 59.6279C42.9609 59.6279 42.6796 59.3467 42.6796 59.0186C42.6796 58.6904 42.9609 58.4092 43.289 58.4092C43.6171 58.4092 43.8984 58.6904 43.8984 59.0186C43.8984 59.3701 43.6406 59.6279 43.289 59.6279Z" fill="#E6F2EA"/>
<path d="M51.9374 59.2529H45.867C45.7498 59.2529 45.6327 59.1592 45.6327 59.0186C45.6327 58.8779 45.7264 58.7842 45.867 58.7842H51.9374C52.0545 58.7842 52.1717 58.8779 52.1717 59.0186C52.1717 59.1592 52.0545 59.2529 51.9374 59.2529Z" fill="#E6F2EA"/>
<path d="M63.6094 61.8311H34.0782V105.917H63.6094V61.8311Z" fill="#D2EBF7"/>
<path d="M41.8125 85.2686H36.4453V86.9561H41.8125V85.2686Z" fill="#EDF6F4"/>
<path d="M55.4767 85.2686H50.1095V86.9561H55.4767V85.2686Z" fill="#EDF6F4"/>
<path d="M48.6327 85.2686H43.2656V86.9561H48.6327V85.2686Z" fill="#EDF6F4"/>
<path d="M61.2892 88.3389H39.6798V94.2686H61.2892V88.3389Z" fill="#EDF6F4"/>
<path d="M60.3282 89.1826H56.1094V93.4014H60.3282V89.1826Z" fill="#D5EAE4"/>
<path d="M47.6953 89.4404H38.5547V90.2607H47.6953V89.4404Z" fill="#ACD8C8"/>
<path d="M47.6953 90.8936H38.5547V91.7139H47.6953V90.8936Z" fill="#ACD8C8"/>
<path d="M44.6953 92.3467H38.5547V93.167H44.6953V92.3467Z" fill="#ACD8C8"/>
<path d="M52.2889 95.7451H36.492V103.151H52.2889V95.7451Z" fill="#EDF6F4"/>
<path d="M46.6172 96.8701H38.5547V97.6904H46.6172V96.8701Z" fill="#FFE1AB"/>
<path d="M44.6953 98.2998H38.5547V99.1201H44.6953V98.2998Z" fill="#FFE1AB"/>
<path d="M42.7031 99.7529H38.5547V100.573H42.7031V99.7529Z" fill="#FFE1AB"/>
<path d="M45.6794 99.7529H43.2184V100.573H45.6794V99.7529Z" fill="#ACD8C8"/>
<path d="M44.1562 101.206H38.5547V102.026H44.1562V101.206Z" fill="#FFE1AB"/>
<path opacity="0.5" d="M55.4999 64.5732H32.2499V83.5342H55.4999V64.5732Z" fill="#FFE1AB"/>
<path d="M46.0079 80.0654C49.2957 80.0654 51.961 77.4001 51.961 74.1123C51.961 70.8245 49.2957 68.1592 46.0079 68.1592C42.7201 68.1592 40.0548 70.8245 40.0548 74.1123C40.0548 77.4001 42.7201 80.0654 46.0079 80.0654Z" fill="#FCC450"/>
<path d="M50.5077 74.1123C50.5077 75.6123 49.7812 76.9248 48.6796 77.7451C48.3515 77.9795 47.9765 78.1904 47.5781 78.3311C47.414 78.4014 47.2265 78.4482 47.039 78.4951C46.9218 78.5186 46.8046 78.542 46.7109 78.5654C46.4765 78.6123 46.2421 78.6123 46.0077 78.6123C45.539 78.6123 45.0937 78.542 44.6718 78.4014C42.8437 77.8389 41.5077 76.1045 41.5077 74.0889C41.5077 73.3857 41.6718 72.7295 41.9531 72.1201C42.3046 71.3936 42.8437 70.7607 43.5234 70.3154C43.6874 70.1982 43.8515 70.1045 44.0156 70.0342C44.3906 69.8467 44.789 69.7061 45.1874 69.6357C45.4687 69.5889 45.7265 69.5654 46.0077 69.5654C47.9296 69.5654 49.5702 70.7607 50.2031 72.4482C50.414 72.9873 50.5077 73.5498 50.5077 74.1123Z" fill="#EFF4F4"/>
<path d="M46.0077 74.6514C45.7265 74.6514 45.4921 74.417 45.4921 74.1357V71.2529C45.4921 70.9717 45.7265 70.7373 46.0077 70.7373C46.289 70.7373 46.5234 70.9717 46.5234 71.2529V74.1357C46.5234 74.417 46.289 74.6514 46.0077 74.6514Z" fill="#C1D6CF"/>
<path d="M46.0077 74.6514C45.8437 74.6514 45.6562 74.5577 45.5624 74.417C45.3984 74.1827 45.4921 73.8545 45.7265 73.6905L47.2265 72.753C47.4608 72.5889 47.789 72.6827 47.953 72.917C48.1171 73.1514 48.0233 73.4795 47.789 73.6436L46.289 74.5811C46.1952 74.628 46.1015 74.6514 46.0077 74.6514Z" fill="#C1D6CF"/>
<path opacity="0.3" d="M54.7032 61.8311L34.0782 82.4326V71.3701L43.6173 61.8311H54.7032Z" fill="#F6FBFD"/>
<path opacity="0.3" d="M62.4141 61.8311L34.0782 90.167V84.6123L56.8594 61.8311H62.4141Z" fill="#F6FBFD"/>
<g opacity="0.7">
<path opacity="0.7" d="M65.3204 95.7451H53.8829V107.183H65.3204V95.7451Z" fill="#9FD2BA"/>
<path opacity="0.7" d="M59.5781 101.979C58.7812 101.979 58.125 101.323 58.125 100.526V99.6592C58.125 98.8623 58.7812 98.2061 59.5781 98.2061C60.375 98.2061 61.0313 98.8623 61.0313 99.6592V100.526C61.0547 101.323 60.3984 101.979 59.5781 101.979Z" fill="#F8FCFA"/>
<path opacity="0.7" d="M59.5781 101.229C58.1953 101.229 57.0234 102.026 56.4609 103.198C56.1328 103.878 56.625 104.675 57.375 104.675H61.7344C62.4844 104.675 62.9766 103.878 62.6484 103.198C62.1562 102.026 60.9609 101.229 59.5781 101.229Z" fill="#F8FCFA"/>
</g>
<path d="M60.9842 64.5732H57.5858V86.9561H60.9842V64.5732Z" fill="#9FD2BA"/>
<path d="M63.961 77.792V69.6123C64.336 69.6123 64.6407 69.917 64.6407 70.292V77.1357C64.6407 77.4873 64.336 77.792 63.961 77.792Z" fill="#5BB98E"/>
<path opacity="0.3" d="M43.4295 56.3232L40.617 64.5732L34.1483 83.5342L33.5155 85.4092V83.5342H32.2733V64.5732H33.5155V57.917C33.5155 57.0264 34.242 56.3232 35.1092 56.3232H43.4295V56.3232Z" fill="#385F82"/>
<path d="M18.2109 114.026H68.5077C69.0937 114.026 69.5859 113.558 69.5859 112.948C69.5859 112.362 69.1171 111.87 68.5077 111.87H18.2109C17.6249 111.87 17.1327 112.339 17.1327 112.948C17.1562 113.558 17.6249 114.026 18.2109 114.026Z" fill="#E2E2E1"/>
</svg>
