<svg width="120" height="121" viewBox="0 0 120 121" fill="none" xmlns="http://www.w3.org/2000/svg">
<path opacity="0.34" d="M18.5391 112.328C28.0013 112.328 35.6719 110.828 35.6719 108.977C35.6719 107.126 28.0013 105.625 18.5391 105.625C9.07687 105.625 1.40625 107.126 1.40625 108.977C1.40625 110.828 9.07687 112.328 18.5391 112.328Z" fill="#575FA8"/>
<path d="M20.414 102.93L20.0624 108.648H30.2812C30.2812 108.648 26.1093 105.859 24.2577 104.969L24.0468 102.953H20.414V102.93Z" fill="#F08789"/>
<path d="M23.5781 57.5547L24.2578 104.477H20.2266C20.2266 104.477 15.7734 86.1016 17.9531 80.7344L14.0625 57.5547H23.5781V57.5547Z" fill="#32388D"/>
<path opacity="0.2" d="M23.578 57.5547H14.0859L17.9765 80.7344C17.2265 82.5859 17.2499 86.0078 17.6249 89.6875L24.164 97.6797L23.578 57.5547Z" fill="#020203"/>
<path d="M9.63289 103.68L8.06258 109.398H19.2188C19.2188 109.398 14.5079 106.609 12.6329 105.719L12.9845 103.703H9.63289V103.68Z" fill="#F08789"/>
<path d="M23.8595 56.9688L19.8986 80.5L13.2189 104.477H9.21109C9.21109 104.477 10.5002 81.4609 14.6252 79.0703L11.3673 56.9922H23.8595V56.9688Z" fill="#32388D"/>
<path opacity="0.2" d="M23.6016 58.5859L23.8594 56.9688H11.3672L11.6484 58.8906L23.625 60.4141L23.6016 58.5859Z" fill="#020203"/>
<path d="M30.3048 40.7266C30.3048 40.7266 32.7892 36.7187 36.6564 35.8047L35.133 37.6328C35.133 37.6328 35.8595 39.5312 34.9455 40.4922C34.0314 41.4531 32.5548 41.5234 32.5548 41.5234L31.5236 42.6719L30.3048 40.7266Z" fill="#F5ABAE"/>
<path d="M20.4844 37.4453L23.8828 44.3828L30.5391 39.8828L32.2031 42.4375C32.2031 42.4375 26.4141 53.3125 23.8594 52.5156C21.3047 51.7188 19.1016 45.9766 19.1016 45.9766L20.4844 37.4453Z" fill="white"/>
<path opacity="0.2" d="M23.8594 44.3828L20.4609 37.4453L19.1016 45.9766C19.1016 45.9766 21.3047 51.7188 23.8594 52.5156C23.9297 52.5391 23.9766 52.5391 24.0469 52.5391L27.1172 42.1562L23.8594 44.3828Z" fill="#020203"/>
<path d="M23.0625 21.0624C23.0625 21.0624 23.461 24.6015 23.8594 25.4687H22.7579C22.7579 25.4687 22.8516 28.8671 22.1485 29.289C21.6563 29.5937 20.2266 29.289 19.8985 29.6874C19.5704 30.0859 19.0782 32.9218 19.0782 32.9218L14.6485 32.5468L15.0938 28.5859C15.0938 28.5859 12.6094 25.6093 13.3594 21.953C14.1094 18.2968 22.4063 17.664 23.0625 21.0624Z" fill="#F5ABAE"/>
<path opacity="0.2" d="M17.5313 26.9687L14.0391 26.7812C14.5548 27.8828 15.1173 28.5625 15.1173 28.5625L14.672 32.5234L19.1016 32.8984C19.1016 32.8984 19.5938 30.0625 19.922 29.6641C20.0391 29.5234 20.3204 29.4531 20.6485 29.4531C18.9376 28.9844 17.3907 27.0625 17.5313 26.9687Z" fill="#020203"/>
<path d="M23.2033 22.2343C23.2033 22.2343 22.2658 22.7968 20.3908 21.5546C20.3908 21.5546 19.1252 23.828 18.0236 23.5233C18.0236 23.5233 17.9767 25.1405 17.7424 25.2577C17.508 25.3749 17.0392 23.8749 16.5705 23.7811C16.1017 23.6874 15.6096 24.1561 16.1252 25.5624C16.6174 26.9687 17.5314 26.9687 17.5314 26.9687L15.0939 28.5858C15.0939 28.5858 13.1721 27.9765 12.7971 26.3827C12.7971 26.3827 10.3596 24.0155 11.8361 22.328C11.8361 22.328 10.2189 20.9686 13.9924 19.3046C13.9924 19.3046 14.883 16.0233 16.6408 17.5233C16.6408 17.5233 19.8986 15.0858 20.6955 17.2655C20.6955 17.2655 24.8908 16.914 25.1486 19.1874C25.4064 21.4608 24.3986 21.9999 24.3986 21.9999C24.3986 21.9999 24.633 23.8749 23.4611 23.9687L23.2033 22.2343Z" fill="#212226"/>
<path d="M11.5781 37.1404C11.5781 37.1404 9.37495 36.6013 9.74995 34.2576C10.1249 31.8904 13.2187 30.8357 19.5703 32.3123C20.3203 32.4763 20.9062 33.7185 20.414 34.7967C20.414 34.7967 22.4531 39.8123 23.0859 43.9138C23.7187 48.0154 24.0468 52.3045 24.7499 54.2967C25.4296 56.2888 24.8671 58.5154 22.9687 58.5154C21.0937 58.5154 13.6874 58.5154 11.3906 58.5154C9.0937 58.5154 8.81245 55.3279 9.72651 51.9998C10.6171 48.6951 11.9531 39.531 11.5781 37.1404Z" fill="#444496"/>
<path d="M16.7346 35.8514C20.344 36.6249 17.8362 43.7967 17.1096 45.8358C16.3831 47.8983 15.5862 49.7264 16.7346 51.3202C17.8831 52.9139 19.8987 54.6952 19.8987 54.6952L18.5393 57.5546C18.5393 57.5546 11.0159 56.5936 9.21119 54.3671C7.42995 52.1405 8.43776 47.1717 9.98463 43.7499C11.5315 40.328 14.0393 35.2889 16.7346 35.8514Z" fill="white"/>
<path d="M18.3283 58.047C18.2346 58.0001 18.2111 57.9064 18.2346 57.8126L20.0627 53.8283C20.1096 53.7345 20.2033 53.7111 20.2971 53.7345C20.3908 53.7814 20.4143 53.8752 20.3908 53.9689L18.5627 57.9533C18.5158 58.047 18.4221 58.0705 18.3283 58.047Z" fill="#A77071"/>
<path d="M16.617 71.6172C16.617 72.2031 16.1483 72.6953 15.5389 72.6953C14.953 72.6953 14.4608 72.2031 14.4608 71.6172C14.4608 71.0313 14.9295 70.5391 15.5389 70.5391C16.1483 70.5625 16.617 71.0313 16.617 71.6172Z" fill="#59BCAB"/>
<path d="M9.91391 71.3359C8.41391 71.3359 7.19516 70.1172 7.19516 68.6172C7.19516 67.1172 8.41391 65.8984 9.91391 65.8984C11.4139 65.8984 12.6327 67.1172 12.6327 68.6172C12.6327 70.1172 11.4139 71.3359 9.91391 71.3359ZM9.91391 67.3281C9.18735 67.3281 8.62485 67.9141 8.62485 68.6172C8.62485 69.3203 9.21078 69.9062 9.91391 69.9062C10.6405 69.9062 11.203 69.3203 11.203 68.6172C11.203 67.9141 10.6405 67.3281 9.91391 67.3281Z" fill="#FCC450"/>
<path d="M88.0781 18.1563H87.1875V19.0703C87.1875 19.4922 86.8593 19.8203 86.4375 19.8203C86.0156 19.8203 85.6875 19.4922 85.6875 19.0703V18.1563H84.7734C84.3515 18.1563 84.0234 17.8281 84.0234 17.4063C84.0234 16.9844 84.3515 16.6562 84.7734 16.6562H85.6875V15.7422C85.6875 15.3203 86.0156 14.9922 86.4375 14.9922C86.8593 14.9922 87.1875 15.3203 87.1875 15.7422V16.6562H88.1015C88.5234 16.6562 88.8515 16.9844 88.8515 17.4063C88.8281 17.8281 88.5 18.1563 88.0781 18.1563Z" fill="#59BCAB"/>
<path d="M95.4375 13.4219C95.4375 14.0078 94.9687 14.5 94.3594 14.5C93.7734 14.5 93.2812 14.0312 93.2812 13.4219C93.2812 12.8359 93.7734 12.3438 94.3594 12.3438C94.9453 12.3438 95.4375 12.8125 95.4375 13.4219Z" fill="#345185"/>
<path d="M39.9609 37.5391C36.7266 29.4297 38.3906 19.8438 44.9531 13.2813C48.1172 10.1172 51.9844 8.07813 56.0625 7.21094L58.4766 18.1563C53.3906 19.2578 49.5938 23.7813 49.5938 29.1953C49.5938 30.6719 49.875 32.0781 50.3906 33.3906L39.9609 37.5391Z" fill="#345185"/>
<path d="M44.9531 45.1094C44.789 44.9453 44.6015 44.7578 44.4374 44.5703L52.6171 36.9062C54.6796 39.1094 57.6093 40.4687 60.8671 40.4687C67.1015 40.4687 72.164 35.4062 72.164 29.1719C72.164 24.7187 69.6093 20.875 65.8593 19.0469L70.8281 8.99219C72.9843 10.0469 74.9999 11.4766 76.7812 13.2578C85.5702 22.0469 85.5702 36.3203 76.7812 45.1094C68.0156 53.8984 53.7421 53.8984 44.9531 45.1094Z" fill="white"/>
<path d="M60.8908 17.8983C60.047 17.8983 59.2501 17.992 58.4767 18.1561L56.0861 7.21077C61.008 6.13265 66.2345 6.71858 70.8517 9.01546L65.883 19.0701C64.383 18.2967 62.672 17.8983 60.8908 17.8983Z" fill="#59BCAB"/>
<path d="M44.4375 44.5703C42.4688 42.4609 40.9687 40.0703 39.9609 37.5391L50.3906 33.3906C50.9062 34.7031 51.6797 35.8984 52.6406 36.9297L44.4375 44.5703Z" fill="#C1E4EE"/>
<path d="M112.195 24.1797V99.6016C112.195 100.867 111.164 101.898 109.898 101.898H61.6638C60.3982 101.898 59.367 100.867 59.367 99.6016V24.1797C59.367 22.9141 60.3982 21.8594 61.6638 21.8594H109.875C111.164 21.8594 112.195 22.8906 112.195 24.1797Z" fill="#4FBECB"/>
<path d="M54.0465 104.055H117.515C118.101 104.055 118.593 103.586 118.593 102.977C118.593 102.391 118.125 101.898 117.515 101.898H54.0465C53.4606 101.898 52.9684 102.367 52.9684 102.977C52.9684 103.586 53.4606 104.055 54.0465 104.055Z" fill="#E2E2E1"/>
<path d="M112.195 24.1563V29.7812H59.367V24.1563C59.367 22.8906 60.3982 21.8359 61.6638 21.8359H109.875C111.164 21.8594 112.195 22.8906 112.195 24.1563Z" fill="#4FBECB"/>
<path d="M85.781 99.9062C84.5857 99.9062 83.6248 98.9453 83.6248 97.75C83.6248 96.5547 84.5857 95.5938 85.781 95.5938C86.9763 95.5938 87.9373 96.5547 87.9373 97.75C87.9607 98.9453 86.9763 99.9062 85.781 99.9062Z" fill="#E6F2EA"/>
<path d="M65.4606 26.6406C64.9684 26.6406 64.5699 26.2422 64.5699 25.75C64.5699 25.2578 64.9684 24.8594 65.4606 24.8594C65.9528 24.8594 66.3512 25.2578 66.3512 25.75C66.3278 26.2422 65.9293 26.6406 65.4606 26.6406Z" fill="#E6F2EA"/>
<path d="M68.2497 26.6406C67.7575 26.6406 67.3591 26.2422 67.3591 25.75C67.3591 25.2578 67.7575 24.8594 68.2497 24.8594C68.7419 24.8594 69.1403 25.2578 69.1403 25.75C69.1403 26.2422 68.7419 26.6406 68.2497 26.6406Z" fill="#E6F2EA"/>
<path d="M111.375 29.7812H60.1873V93.2734H111.375V29.7812Z" fill="#D2EBF7"/>
<path d="M69.3495 51.0625V43.5391H52.4042V51.0625H69.3495Z" fill="#A9DAE5"/>
<path d="M79.6902 70.207V62.6836H62.7448V70.207H79.6902Z" fill="#A9DAE5"/>
<path d="M74.5317 60.647V53.1235H57.5864V60.647H74.5317Z" fill="#A9DAE5"/>
<path d="M108.445 32.4531H62.7421V41.0078H108.445V32.4531Z" fill="#EDF6F4"/>
<path d="M107.062 33.6719H100.992V39.7422H107.062V33.6719Z" fill="#D2E8F2"/>
<path d="M78.8435 34.0469H65.6951V35.2188H78.8435V34.0469Z" fill="#ACD8C8"/>
<path d="M78.8435 36.1328H65.6951V37.3047H78.8435V36.1328Z" fill="#ACD8C8"/>
<path d="M74.5545 38.2188H65.6951V39.3906H74.5545V38.2188Z" fill="#ACD8C8"/>
<path opacity="0.5" d="M117.07 68.9922H79.6871V86.5469H117.07V68.9922Z" fill="#96CEB8"/>
<path d="M98.0856 75.0625H83.4138V76.5391H98.0856V75.0625Z" fill="#E6F2EA"/>
<path d="M94.5934 77.6875H83.4138V79.1641H94.5934V77.6875Z" fill="#E6F2EA"/>
<path d="M90.9606 80.3359H83.4138V81.8125H90.9606V80.3359Z" fill="#E6F2EA"/>
<path d="M96.398 80.3359H91.898V81.8125H96.398V80.3359Z" fill="#E6F2EA"/>
<path d="M93.6091 82.9609H83.4138V84.4375H93.6091V82.9609Z" fill="#E6F2EA"/>
<path d="M76.242 73.0234H62.7421V86.5234H76.242V73.0234Z" fill="#9FD2BA"/>
<path d="M72.4776 82.8014C74.1251 81.1539 74.1251 78.4828 72.4776 76.8353C70.83 75.1878 68.1589 75.1878 66.5114 76.8353C64.8639 78.4828 64.8639 81.1539 66.5114 82.8014C68.1589 84.4489 70.83 84.4489 72.4776 82.8014Z" fill="#7CC39E"/>
<path d="M72.7032 79.8203C72.7032 80.875 72.1876 81.8125 71.3907 82.3984C71.1563 82.5625 70.8985 82.7266 70.6173 82.8203C70.5001 82.8672 70.3595 82.9141 70.2423 82.9375C70.172 82.9609 70.0782 82.9609 70.0079 82.9844C69.8438 83.0078 69.6798 83.0313 69.5157 83.0313C69.1876 83.0313 68.8595 82.9844 68.5548 82.8906C67.2423 82.4922 66.3048 81.2734 66.3048 79.8203C66.3048 79.3281 66.4219 78.8359 66.6329 78.4141C66.8907 77.8984 67.2657 77.4531 67.7345 77.1484C67.8516 77.0781 67.9688 77.0078 68.086 76.9375C68.3438 76.7969 68.6251 76.7031 68.9298 76.6563C69.1173 76.6094 69.3282 76.6094 69.5157 76.6094C70.8751 76.6094 72.0469 77.4531 72.4923 78.6484C72.6094 79.0234 72.7032 79.3984 72.7032 79.8203Z" fill="#EFF4F4"/>
<path d="M69.4923 80.1953C69.2813 80.1953 69.1173 80.0312 69.1173 79.8203V77.7578C69.1173 77.5469 69.2813 77.3828 69.4923 77.3828C69.7032 77.3828 69.8673 77.5469 69.8673 77.7578V79.8203C69.8673 80.0312 69.7032 80.1953 69.4923 80.1953Z" fill="#C1D6CF"/>
<path d="M69.4922 80.1949C69.3751 80.1949 69.2579 80.1246 69.1876 80.0309C69.0704 79.8668 69.1407 79.6324 69.3047 79.5152L70.3594 78.8355C70.5235 78.7183 70.7578 78.7887 70.875 78.9527C70.9922 79.1168 70.9219 79.3512 70.7578 79.4684L69.7032 80.148C69.6329 80.1715 69.5625 80.1949 69.4922 80.1949Z" fill="#C1D6CF"/>
<path d="M108.445 43.5391H81.7731V70.2109H108.445V43.5391Z" fill="#98D5E9"/>
<path d="M95.1091 58.0703C93.2341 58.0703 91.7107 56.5469 91.7107 54.6719V52.6328C91.7107 50.7578 93.2341 49.2344 95.1091 49.2344C96.9841 49.2344 98.5076 50.7578 98.5076 52.6328V54.6719C98.5076 56.5469 96.9841 58.0703 95.1091 58.0703Z" fill="#F8FCFA"/>
<path d="M95.1092 56.3359C91.8982 56.3359 89.156 58.2109 87.867 60.9297C87.117 62.5234 88.2654 64.3516 90.0232 64.3516H100.219C101.976 64.3516 103.125 62.5234 102.375 60.9297C101.086 58.2109 98.3201 56.3359 95.1092 56.3359Z" fill="#F8FCFA"/>
<path d="M108.44 89.6064V87.4268L62.7368 87.4268V89.6064L108.44 89.6064Z" fill="#FFE1AB"/>
<path d="M111.867 42.6719V34.7266C112.429 34.7266 112.898 35.1953 112.898 35.7578V41.6641C112.898 42.2266 112.429 42.6719 111.867 42.6719Z" fill="#4FBECB"/>
<path d="M111.867 51.5547V43.6094C112.429 43.6094 112.898 44.0781 112.898 44.6406V50.5469C112.898 51.0859 112.429 51.5547 111.867 51.5547Z" fill="#4FBECB"/>
<path opacity="0.3" d="M89.8826 29.7812L60.1873 59.4766V43.5156L73.9216 29.7812H89.8826Z" fill="#F6FBFD"/>
<path opacity="0.3" d="M100.992 29.7812L60.1873 70.5859V62.6172L93.0232 29.7812H100.992Z" fill="#F6FBFD"/>
<path opacity="0.3" d="M70.7809 75.4844V82.3281C70.7809 82.6094 70.5934 82.8672 70.3356 82.9375V101.875H61.6872C60.4216 101.875 59.3903 100.844 59.3903 99.5781V61.5391H68.7419C69.6325 61.5391 70.3356 62.2656 70.3356 63.1328V74.875C70.5934 74.9687 70.7809 75.2031 70.7809 75.4844Z" fill="#385F82"/>
<path d="M64.1953 58.375V110.734C64.1953 111.625 63.4687 112.328 62.6016 112.328H35.1094C34.2422 112.328 33.5156 111.625 33.5156 110.734V58.375C33.5156 57.4844 34.2422 56.7812 35.1094 56.7812H62.5781C63.4687 56.7813 64.1953 57.4844 64.1953 58.375Z" fill="#5BB98E"/>
<path d="M64.1953 58.375V62.289H33.5156V58.375C33.5156 57.4844 34.2422 56.7812 35.1094 56.7812H62.6016C63.4687 56.7812 64.1953 57.5078 64.1953 58.375Z" fill="#5BB98E"/>
<path d="M48.8437 110.969C48.0234 110.969 47.3438 110.289 47.3438 109.469C47.3438 108.648 48.0234 107.969 48.8437 107.969C49.6641 107.969 50.3437 108.648 50.3437 109.469C50.3437 110.289 49.6875 110.969 48.8437 110.969Z" fill="#E6F2EA"/>
<path d="M43.289 60.0859C42.9609 60.0859 42.6796 59.8047 42.6796 59.4766C42.6796 59.1484 42.9609 58.8672 43.289 58.8672C43.6171 58.8672 43.8984 59.1484 43.8984 59.4766C43.8984 59.8281 43.6406 60.0859 43.289 60.0859Z" fill="#E6F2EA"/>
<path d="M51.9374 59.7109H45.867C45.7498 59.7109 45.6327 59.6172 45.6327 59.4766C45.6327 59.3359 45.7264 59.2422 45.867 59.2422H51.9374C52.0545 59.2422 52.1717 59.3359 52.1717 59.4766C52.1717 59.6172 52.0545 59.7109 51.9374 59.7109Z" fill="#E6F2EA"/>
<path d="M63.6094 62.2891H34.0782V106.375H63.6094V62.2891Z" fill="#D2EBF7"/>
<path d="M41.8125 85.7266H36.4453V87.4141H41.8125V85.7266Z" fill="#EDF6F4"/>
<path d="M55.4767 85.7266H50.1095V87.4141H55.4767V85.7266Z" fill="#EDF6F4"/>
<path d="M48.6327 85.7266H43.2656V87.4141H48.6327V85.7266Z" fill="#EDF6F4"/>
<path d="M61.2892 88.7969H39.6798V94.7266H61.2892V88.7969Z" fill="#EDF6F4"/>
<path d="M60.3282 89.6406H56.1094V93.8594H60.3282V89.6406Z" fill="#D5EAE4"/>
<path d="M47.6953 89.8984H38.5547V90.7188H47.6953V89.8984Z" fill="#ACD8C8"/>
<path d="M47.6953 91.3516H38.5547V92.1719H47.6953V91.3516Z" fill="#ACD8C8"/>
<path d="M44.6953 92.8047H38.5547V93.625H44.6953V92.8047Z" fill="#ACD8C8"/>
<path d="M52.2889 96.2031H36.492V103.609H52.2889V96.2031Z" fill="#EDF6F4"/>
<path d="M46.6172 97.3281H38.5547V98.1484H46.6172V97.3281Z" fill="#FFE1AB"/>
<path d="M44.6953 98.7578H38.5547V99.5781H44.6953V98.7578Z" fill="#FFE1AB"/>
<path d="M42.7031 100.211H38.5547V101.031H42.7031V100.211Z" fill="#FFE1AB"/>
<path d="M45.6794 100.211H43.2184V101.031H45.6794V100.211Z" fill="#ACD8C8"/>
<path d="M44.1562 101.664H38.5547V102.484H44.1562V101.664Z" fill="#FFE1AB"/>
<path opacity="0.5" d="M55.4999 65.0312H32.2499V83.9922H55.4999V65.0312Z" fill="#FFE1AB"/>
<path d="M46.0079 80.5234C49.2957 80.5234 51.961 77.8581 51.961 74.5703C51.961 71.2825 49.2957 68.6172 46.0079 68.6172C42.7201 68.6172 40.0548 71.2825 40.0548 74.5703C40.0548 77.8581 42.7201 80.5234 46.0079 80.5234Z" fill="#FCC450"/>
<path d="M50.5077 74.5703C50.5077 76.0703 49.7812 77.3828 48.6796 78.2031C48.3515 78.4375 47.9765 78.6484 47.5781 78.7891C47.414 78.8594 47.2265 78.9063 47.039 78.9531C46.9218 78.9766 46.8046 79 46.7109 79.0234C46.4765 79.0703 46.2421 79.0703 46.0077 79.0703C45.539 79.0703 45.0937 79 44.6718 78.8594C42.8437 78.2969 41.5077 76.5625 41.5077 74.5469C41.5077 73.8438 41.6718 73.1875 41.9531 72.5781C42.3046 71.8516 42.8437 71.2188 43.5234 70.7734C43.6874 70.6563 43.8515 70.5625 44.0156 70.4922C44.3906 70.3047 44.789 70.1641 45.1874 70.0938C45.4687 70.0469 45.7265 70.0234 46.0077 70.0234C47.9296 70.0234 49.5702 71.2188 50.2031 72.9063C50.414 73.4453 50.5077 74.0078 50.5077 74.5703Z" fill="#EFF4F4"/>
<path d="M46.0077 75.1094C45.7265 75.1094 45.4921 74.875 45.4921 74.5937V71.7109C45.4921 71.4297 45.7265 71.1953 46.0077 71.1953C46.289 71.1953 46.5234 71.4297 46.5234 71.7109V74.5937C46.5234 74.875 46.289 75.1094 46.0077 75.1094Z" fill="#C1D6CF"/>
<path d="M46.0077 75.1094C45.8437 75.1094 45.6562 75.0157 45.5624 74.8751C45.3984 74.6407 45.4921 74.3125 45.7265 74.1485L47.2265 73.211C47.4608 73.0469 47.789 73.1407 47.953 73.375C48.1171 73.6094 48.0233 73.9375 47.789 74.1016L46.289 75.0391C46.1952 75.086 46.1015 75.1094 46.0077 75.1094Z" fill="#C1D6CF"/>
<path opacity="0.3" d="M54.7032 62.2891L34.0782 82.8906V71.8281L43.6173 62.2891H54.7032Z" fill="#F6FBFD"/>
<path opacity="0.3" d="M62.4141 62.2891L34.0782 90.625V85.0703L56.8594 62.2891H62.4141Z" fill="#F6FBFD"/>
<g opacity="0.7">
<path opacity="0.7" d="M65.3204 96.2031H53.8829V107.641H65.3204V96.2031Z" fill="#9FD2BA"/>
<path opacity="0.7" d="M59.5781 102.437C58.7812 102.437 58.125 101.781 58.125 100.984V100.117C58.125 99.3203 58.7812 98.6641 59.5781 98.6641C60.375 98.6641 61.0313 99.3203 61.0313 100.117V100.984C61.0547 101.781 60.3984 102.437 59.5781 102.437Z" fill="#F8FCFA"/>
<path opacity="0.7" d="M59.5781 101.688C58.1953 101.688 57.0234 102.484 56.4609 103.656C56.1328 104.336 56.625 105.133 57.375 105.133H61.7344C62.4844 105.133 62.9766 104.336 62.6484 103.656C62.1562 102.484 60.9609 101.688 59.5781 101.688Z" fill="#F8FCFA"/>
</g>
<path d="M60.9842 65.0312H57.5858V87.4141H60.9842V65.0312Z" fill="#9FD2BA"/>
<path d="M63.961 78.25V70.0703C64.336 70.0703 64.6407 70.375 64.6407 70.75V77.5938C64.6407 77.9453 64.336 78.25 63.961 78.25Z" fill="#5BB98E"/>
<path opacity="0.3" d="M43.4295 56.7812L40.617 65.0313L34.1483 83.9922L33.5155 85.8672V83.9922H32.2733V65.0313H33.5155V58.375C33.5155 57.4844 34.242 56.7812 35.1092 56.7812H43.4295V56.7812Z" fill="#385F82"/>
<path d="M18.2109 114.484H68.5077C69.0937 114.484 69.5859 114.016 69.5859 113.406C69.5859 112.82 69.1171 112.328 68.5077 112.328H18.2109C17.6249 112.328 17.1327 112.797 17.1327 113.406C17.1562 114.016 17.6249 114.484 18.2109 114.484Z" fill="#E2E2E1"/>
</svg>
