<svg width="120" height="121" viewBox="0 0 120 121" fill="none" xmlns="http://www.w3.org/2000/svg">
<path d="M44.9298 23.8619C42.5861 24.8462 33.5158 28.6197 28.4533 38.3931C27.3751 40.4791 22.3126 50.2525 26.0392 58.8775C30.9845 70.315 46.0314 67.5259 52.9454 78.2837C58.8751 87.5416 46.5704 96.6353 51.8673 107.651C54.6329 113.393 61.0079 118.198 66.8908 118.643C85.2892 120.026 118.336 80.3931 104.906 49.2916C95.1095 26.6978 63.8908 15.9634 44.9298 23.8619Z" fill="url(#paint0_linear_107_6740)"/>
<path d="M82.4296 41.6275L48.5624 29.065C47.5312 28.69 46.4062 29.2057 46.0312 30.2369L23.1562 91.8072C22.7812 92.8385 23.2968 93.9635 24.328 94.3385L58.1952 106.901C59.2265 107.276 60.3515 106.76 60.7265 105.729L83.6015 44.1354C83.9765 43.1275 83.4609 42.0025 82.4296 41.6275Z" fill="#2D548D"/>
<path opacity="0.09" d="M62.1328 73.1748C61.2891 73.1748 60.4219 73.1513 59.5313 73.1044C46.3828 72.3779 35.6484 66.5185 30.8203 57.4482C23.1094 42.9638 30.6797 22.7841 42.2813 16.4326C48.1406 13.1982 53.2266 13.292 56.4609 13.9482C61.9922 15.0498 66.0703 17.6045 67.9453 21.1201C69.9609 24.8935 68.8828 28.4326 67.7344 32.1591C66.7031 35.5107 65.6484 38.956 66.9141 42.6826C68.0391 46.0107 70.9688 47.0419 74.0859 48.1435C77.25 49.2685 80.5313 50.417 82.2891 54.0498C84.1406 57.8935 83.9063 63.1435 81.7734 66.3076C78.8672 70.5263 71.1797 73.1748 62.1328 73.1748ZM52.8047 13.8545C49.9219 13.8545 46.3359 14.5107 42.4219 16.667C30.9375 22.9716 23.4375 42.9873 31.0781 57.331C35.8594 66.331 46.5234 72.1201 59.5781 72.8466C69.6094 73.4091 78.4453 70.7138 81.5625 66.1669C83.6484 63.0966 83.8828 57.9404 82.0547 54.1904C80.3438 50.6513 77.1328 49.5263 74.0156 48.4248C70.8516 47.2998 67.8516 46.2451 66.6797 42.7998C65.3906 38.9795 66.4688 35.4873 67.5 32.0888C68.625 28.4091 69.7031 24.917 67.7344 21.2373C65.9063 17.792 61.875 15.2841 56.4375 14.206C55.3828 13.9951 54.1641 13.8545 52.8047 13.8545Z" fill="#AAAAD5"/>
<path opacity="0.2" d="M74.2267 38.5806L70.4767 41.0884L37.7345 63.0728L32.5548 66.5649L39.6798 47.3228L44.8829 43.8306L56.6251 35.9321L60.3751 33.4243L74.2267 38.5806Z" fill="#EEEDF3"/>
<path opacity="0.2" d="M81.6798 41.3462L77.9298 43.854L33.8907 73.4321L28.6876 76.9009L31.2188 70.1274L36.3985 66.6587V66.6352L73.0548 42.0493L76.8048 39.5181L81.6798 41.3462Z" fill="#EEEDF3"/>
<path d="M82.4295 41.6275L81.6795 41.3463L76.8045 39.5416L74.2264 38.5807L60.3749 33.4479L48.5624 29.065C47.5545 28.69 46.4061 29.2057 46.0311 30.2369L39.6795 47.3463L32.5311 66.5885L31.1952 70.1744L28.6874 76.9479L23.1561 91.8541C23.0858 92.0416 23.0624 92.2291 23.0389 92.4166C22.9686 93.2604 23.4842 94.0807 24.328 94.3854L30.6092 96.7291L35.3436 98.4869L47.8592 103.128L52.4295 104.815L58.1952 106.948C59.203 107.323 60.3514 106.807 60.7264 105.799L83.1795 45.3307L83.6014 44.2057C83.9764 43.1275 83.4608 42.0025 82.4295 41.6275ZM79.2186 45.4479L78.7498 46.7369L59.4139 98.8385C59.203 99.3775 58.5936 99.6822 58.0311 99.4713L53.7889 97.901L48.6561 96.0025L38.0624 92.065L33.2108 90.2604L29.3436 88.8307C28.9217 88.6666 28.6639 88.2916 28.6639 87.8697C28.6639 87.7291 28.6639 87.5885 28.7342 87.4479L33.9374 73.4557L36.4452 66.6822L37.7811 63.0963L44.9295 43.8541L48.5624 34.0807C48.7733 33.5416 49.3827 33.2369 49.9217 33.4479L56.6717 35.9557L70.5233 41.0885L73.1014 42.0494L77.9764 43.8541L78.6092 44.0885C79.1483 44.2994 79.4295 44.9088 79.2186 45.4479Z" fill="#EEEDF3"/>
<path d="M40.3123 98.0886C39.3514 97.737 38.8592 96.6589 39.2107 95.698C39.5623 94.737 40.6404 94.2449 41.6014 94.5964C42.5623 94.948 43.0545 96.0261 42.7029 96.987C42.3279 97.9714 41.2498 98.4402 40.3123 98.0886Z" fill="#C9C7D9"/>
<path opacity="0.1" d="M62.9531 5.2994L15.6797 20.9557C14.5312 21.3307 13.9219 22.5728 14.2969 23.6978L18.8906 37.526C19.2656 38.6744 20.5078 39.2838 21.6328 38.9088L26.2969 37.3619L28.5703 36.6119C29.1562 36.9869 30.6094 37.9713 31.1953 38.3228C31.7344 38.6275 32.4375 38.3932 32.6953 37.8307C32.9766 37.1978 33.5625 35.5572 33.7969 34.901L45.2812 31.0807L68.9062 23.2525C70.0547 22.8775 70.6641 21.6353 70.2891 20.5103L65.6953 6.68222C65.3203 5.53378 64.1016 4.9244 62.9531 5.2994Z" fill="#3F3F3F"/>
<path d="M62.953 1.6433L12.2342 18.448C11.0155 18.8464 10.3592 20.1824 10.7577 21.4011L15.6796 36.2371C16.078 37.4558 17.4139 38.112 18.6327 37.7136L23.6249 36.0496L26.0624 35.2527C26.6717 35.6745 28.2421 36.7058 28.8749 37.0808C29.4374 37.4089 30.2108 37.1511 30.4921 36.5417C30.7733 35.862 31.4296 34.0808 31.6639 33.4011L43.9921 29.323L69.3514 20.9089C70.5702 20.5105 71.2264 19.1746 70.828 17.9558L65.9061 3.11987C65.5077 1.90112 64.1952 1.24487 62.953 1.6433Z" fill="url(#paint1_linear_107_6740)"/>
<path d="M25.0778 25.4091C25.4294 24.7997 25.5232 24.0497 25.2888 23.3232L24.8903 22.1279C24.445 20.7919 23.0388 19.9716 21.6794 20.37C20.2732 20.7919 19.5232 22.2685 19.9685 23.6513L20.3903 24.9638C20.6247 25.6904 21.1638 26.2294 21.7966 26.5107C20.3435 27.6122 19.4997 29.37 19.6169 31.2216C19.6638 31.9482 20.3903 32.3935 21.07 32.1825L28.9919 29.5575C29.6716 29.3232 29.9763 28.5263 29.6013 27.9169C28.6169 26.3232 26.906 25.4091 25.0778 25.4091Z" fill="white"/>
<path d="M44.1561 12.8933L34.0545 16.2448C33.2342 16.5261 32.7889 17.4167 33.0467 18.237L34.6873 23.2058C34.9686 24.0261 35.8592 24.4714 36.6795 24.2136L37.6639 23.8855C37.6639 23.8855 39.5389 25.1511 40.1717 25.5261C40.6404 25.7839 41.2733 25.5964 41.4842 25.0808C41.7889 24.4011 42.5389 22.2683 42.5389 22.2683L46.7811 20.862C47.6014 20.5808 48.0467 19.6902 47.7889 18.8698L46.1483 13.9011C45.867 13.0573 44.9764 12.612 44.1561 12.8933Z" fill="white"/>
<path d="M35.8122 18.5417C35.4841 18.612 35.1325 18.448 35.0388 18.1198C34.9216 17.7683 35.1091 17.3933 35.4607 17.2995L43.6638 14.5808C43.9919 14.4636 44.3903 14.6511 44.4841 15.0027C44.6013 15.3542 44.4138 15.7292 44.0622 15.823L35.8591 18.5417C35.8357 18.5417 35.8357 18.5417 35.8122 18.5417Z" fill="#E2E1E1"/>
<path d="M36.5153 20.698C36.1872 20.7683 35.8357 20.6042 35.7419 20.2761C35.6247 19.9245 35.8122 19.5495 36.1638 19.4558L44.3669 16.737C44.695 16.6198 45.0935 16.8073 45.1872 17.1589C45.3044 17.5105 45.1169 17.8855 44.7653 17.9792L36.5622 20.698C36.5622 20.6745 36.5388 20.698 36.5153 20.698Z" fill="#E2E1E1"/>
<path d="M37.2422 22.8308C36.9141 22.9011 36.5625 22.737 36.4687 22.4089C36.3516 22.0573 36.5391 21.6823 36.8906 21.5886L40.5937 20.3698C40.9219 20.2527 41.2969 20.4401 41.4141 20.7917C41.5312 21.1433 41.3437 21.5183 40.9922 21.612L37.2891 22.8308C37.2656 22.8308 37.2656 22.8308 37.2422 22.8308Z" fill="#E2E1E1"/>
<path d="M65.2031 15.237C64.875 14.2292 64.2187 13.3855 63.4219 12.823L63.0703 11.7448C62.4609 9.94015 60.6797 8.88546 58.8515 9.14328L58.7578 8.83859C58.6406 8.48703 58.2656 8.29953 57.914 8.41671C57.5625 8.5339 57.375 8.9089 57.4922 9.26046L57.5859 9.56515C55.9687 10.4323 55.1719 12.3542 55.7578 14.1589L56.1094 15.237C55.8047 16.1745 55.7812 17.2292 56.1094 18.237L56.2734 18.7058C56.3437 18.9402 56.6015 19.0808 56.8359 18.987L58.6406 18.3777C58.664 18.5183 58.7344 18.6589 58.8984 18.7058C59.6484 18.9636 60.4922 18.9636 61.3125 18.7058C62.1328 18.448 62.789 17.9323 63.2578 17.2761C63.3515 17.1355 63.3516 16.9714 63.2812 16.8542L65.0859 16.2448C65.3203 16.1745 65.4609 15.9167 65.3672 15.6823L65.2031 15.237Z" fill="white"/>
<path d="M57.5157 18.2138C57.8672 19.2685 57.2813 20.4404 56.2266 20.7919C55.1719 21.1435 54 20.5576 53.6485 19.5029C53.2969 18.4482 53.8828 17.2763 54.9375 16.9248C56.0157 16.5732 57.1641 17.1357 57.5157 18.2138Z" fill="#E83C3B"/>
<path opacity="0.1" d="M113.953 45.1199L100.992 43.573C100.43 43.5027 99.9374 43.9011 99.8671 44.4636L98.3202 57.4246C98.2499 57.9871 98.6483 58.4792 99.2108 58.5496L112.172 60.0964C112.734 60.1667 113.226 59.7683 113.297 59.2058L114.844 46.2449C114.914 45.7058 114.516 45.1902 113.953 45.1199Z" fill="#3F3F3F"/>
<path d="M115.476 58.2919L100.336 56.4872C100.078 56.4637 99.8904 56.2294 99.9372 55.9716L101.742 40.8309C101.765 40.5731 102 40.3856 102.258 40.4325L117.398 42.2372C117.656 42.2606 117.844 42.495 117.797 42.7528L115.992 57.8934C115.969 58.1278 115.734 58.3153 115.476 58.2919Z" fill="#F8AA09"/>
<path d="M101.554 54.8232L103.054 42.2842C103.078 42.1201 103.219 42.0264 103.359 42.0264L115.898 43.5264C116.062 43.5498 116.156 43.6904 116.156 43.8311L114.656 56.3701C114.633 56.5342 114.492 56.6279 114.351 56.6279L101.812 55.1279C101.648 55.1279 101.554 54.9873 101.554 54.8232Z" fill="#FBBA38"/>
<path d="M109.172 50.417L107.718 51.5655C107.461 51.7764 107.062 51.7295 106.851 51.4717C106.64 51.2139 106.265 51.167 105.984 51.378L103.851 53.0655C103.429 53.3936 103.617 54.0967 104.156 54.167L104.414 54.1905L109.453 54.7998L112.289 55.128C112.828 55.1983 113.179 54.5655 112.851 54.1436L110.039 50.5108C109.828 50.253 109.429 50.2061 109.172 50.417Z" fill="#EE9F05"/>
<path d="M106.57 47.9793C106.5 48.5653 105.961 48.9872 105.375 48.9168C104.789 48.8465 104.367 48.3075 104.437 47.7215C104.507 47.1356 105.046 46.7137 105.632 46.784C106.218 46.8543 106.64 47.3934 106.57 47.9793Z" fill="#EE9F05"/>
<path opacity="0.1" d="M32.0156 81.8937C31.5235 80.3234 29.8594 79.4562 28.2891 79.9484L9.16407 85.9952C7.59376 86.4874 6.72657 88.1515 7.21876 89.7218L11.1563 102.167C11.6484 103.737 13.3125 104.605 14.8828 104.112L16.7578 103.527C16.7578 103.527 20.25 105.941 21.4688 106.667C22.336 107.183 23.5313 106.808 23.9531 105.87C24.5391 104.581 25.9922 100.597 25.9922 100.597L34.0078 98.0656C35.5781 97.5734 36.4453 95.9093 35.9531 94.339L32.0156 81.8937Z" fill="#3F3F3F"/>
<path d="M24.9844 77.1123L4.47656 83.6045C2.78906 84.1436 1.875 85.9248 2.39062 87.6123L6.60937 100.972C7.14843 102.659 8.92968 103.573 10.6172 103.058L12.6094 102.425C12.6094 102.425 16.3594 105.026 17.6484 105.8C18.5859 106.362 19.875 105.94 20.3203 104.956C20.9531 103.573 22.5 99.2842 22.5 99.2842L31.1016 96.5654C32.7891 96.0264 33.7031 94.2451 33.1875 92.5576L28.9687 79.1982C28.4766 77.5107 26.6719 76.5732 24.9844 77.1123Z" fill="url(#paint2_linear_107_6740)"/>
<path d="M25.0547 84.0264L8.4141 89.2998C7.87504 89.4639 7.2891 89.1826 7.12504 88.6201C6.96098 88.0811 7.26567 87.4951 7.80473 87.3311L24.4454 82.0576C24.9844 81.8936 25.5704 82.1748 25.7344 82.7373C25.8985 83.2764 25.5938 83.8623 25.0547 84.0264Z" fill="#EDB7D5"/>
<path d="M26.5311 88.7373L9.89045 94.0108C9.35139 94.1748 8.76545 93.8936 8.60139 93.3311C8.43733 92.792 8.74201 92.2061 9.28108 92.042L25.9217 86.7686C26.4608 86.6045 27.0467 86.8858 27.2108 87.4483C27.3748 87.9639 27.0701 88.5498 26.5311 88.7373Z" fill="#EDB7D5"/>
<path d="M18.8905 96.3076L11.3905 98.6748C10.8515 98.8388 10.2655 98.5342 10.1015 97.9951C9.93739 97.456 10.2421 96.8701 10.7811 96.706L18.2811 94.3388C18.8202 94.1748 19.4061 94.4795 19.5702 95.0185C19.7343 95.5576 19.4296 96.1435 18.8905 96.3076Z" fill="#EDB7D5"/>
<path opacity="0.1" d="M66.9142 53.8384C66.6329 52.6431 65.0392 52.3853 64.3829 53.4399L61.7579 57.6821L60.2814 51.5181C59.9767 50.2759 58.7345 49.5024 57.4923 49.8071L40.547 53.8384C39.3048 54.1431 38.5314 55.3853 38.8361 56.6274L42.8673 73.5728C43.172 74.8149 44.4142 75.5884 45.6564 75.2837L62.6017 71.2524C63.8439 70.9478 64.6173 69.7056 64.3126 68.4634L62.8361 62.2993L67.0783 64.9243C68.1329 65.5806 69.4454 64.6196 69.1408 63.4243L66.9142 53.8384Z" fill="#3F3F3F"/>
<path d="M66.3987 48.8228L63.5862 53.3931L62.0159 46.7837C61.6878 45.4478 60.3518 44.6275 59.0159 44.9321L40.8284 49.2681C39.4924 49.5962 38.6721 50.9321 38.9768 52.2681L43.3128 70.4556C43.6409 71.7915 44.9768 72.6118 46.3128 72.3072L64.5003 67.9712C65.8362 67.6431 66.6565 66.3072 66.3518 64.9712L64.7815 58.3618L69.3518 61.1743C70.4768 61.8775 71.8831 60.8462 71.5784 59.5571L69.1175 49.2681C68.8128 47.979 67.1018 47.6978 66.3987 48.8228Z" fill="#E83B5B"/>
<path d="M49.4298 53.7212L56.0861 57.7993L51.9845 64.4556" fill="white"/>
<path d="M78.9433 80.089L51.2856 84.4946L53.7741 100.117L81.4318 95.7116L78.9433 80.089Z" fill="#E83C3B"/>
<path d="M66.3517 90.1201L78.9376 80.1123L51.2814 84.5186L66.3517 90.1201Z" fill="#EE7375"/>
<path d="M84.5625 106.924H100.383C100.852 106.924 101.25 106.526 101.25 106.057C101.25 105.588 100.852 105.19 100.383 105.19H84.5625C84.0937 105.19 83.6953 105.588 83.6953 106.057C83.6953 106.549 84.0703 106.924 84.5625 106.924Z" fill="#E2E2E1"/>
<path d="M89.7888 103.245L89.0388 98.6743L91.1013 98.0415L91.4294 102.917L89.7888 103.245Z" fill="#D7DDE9"/>
<path d="M91.4998 102.424C91.6404 102.448 91.7576 102.495 91.8748 102.588C92.6014 103.198 94.8279 104.276 95.9529 104.44C97.1717 104.628 97.242 105.213 95.5076 105.213C93.7967 105.213 92.5311 105.049 91.7811 105.073C91.0076 105.096 91.2186 105.213 89.3436 105.213C87.8905 105.213 88.3592 103.362 88.8748 102.518C89.0389 102.26 89.2498 102.12 89.5545 102.143L91.4998 102.424Z" fill="#ED9558"/>
<path d="M83.156 98.979L86.0154 95.3462L87.867 96.4478L84.5154 99.9634L83.156 98.979Z" fill="#D7DDE9"/>
<path d="M84.9373 99.6819C85.0076 99.7991 85.0779 99.9163 85.0779 100.057C85.1248 100.994 85.8514 103.432 86.7185 104.205C87.5857 105.002 87.0232 105.19 85.617 104.533C84.0701 103.807 83.7185 102.237 83.1795 101.698C82.6404 101.158 82.6873 101.369 81.4217 99.9866C80.4373 98.9319 82.1014 98.0179 83.0857 97.8069C83.3904 97.7366 83.6248 97.8069 83.8123 98.0647L84.9373 99.6819Z" fill="#ED9558"/>
<path d="M81.8671 21.729C81.8671 21.729 81.3046 25.479 82.3828 27.2134C83.4609 28.9478 83.6249 29.2056 83.6249 29.2056" fill="#ED8C61"/>
<path d="M84.6329 30.8697C84.3282 31.0572 83.9767 31.151 83.6485 31.151C82.9923 31.151 82.336 30.8228 81.9845 30.19C81.961 30.1666 81.7735 29.8385 80.7657 28.2447C80.0626 27.1197 79.8282 25.5963 79.8048 24.2603C79.7579 22.9478 79.8985 21.8228 79.9688 21.4478C80.1329 20.3932 81.1173 19.6432 82.1954 19.8072C83.2501 19.9713 84.0001 20.9557 83.836 22.0338C83.7423 22.5963 83.7188 23.2525 83.7188 23.8619C83.7188 24.4947 83.7657 25.1041 83.8595 25.5494C83.9063 25.8072 83.9767 26.0416 84.0704 26.1822C85.172 27.94 85.336 28.2213 85.336 28.2213C85.8751 29.1353 85.5704 30.3307 84.6329 30.8697Z" fill="#F6AD86"/>
<path d="M77.4374 52.3384C77.8359 46.7368 75.9609 32.8384 74.9999 27.3071C74.8593 26.4634 75.4921 25.6899 76.3593 25.6899H87.8671C88.4765 25.6899 89.039 26.1118 89.2031 26.6978C90.5156 31.7134 91.3593 52.3149 91.3593 52.3149H77.4374V52.3384Z" fill="#E8E8E8"/>
<path d="M96.4452 40.6899C96.2577 39.6352 94.9686 36.9399 93.539 34.1274C92.0155 31.1508 90.3046 28.0102 89.5077 26.6039C89.0624 25.8071 88.0546 25.5258 87.2577 25.9477C86.4608 26.393 86.1796 27.4008 86.6015 28.1977C87.8202 30.4008 89.0624 32.7211 90.164 34.8071C91.4062 37.1977 92.6015 38.6508 93.0936 39.8227C92.203 40.5961 89.9765 40.6664 88.2186 40.5492C87.7265 40.5024 85.8515 40.3617 84.6093 41.5102C84.1171 41.9555 83.5546 42.7758 83.6015 44.0649C83.6483 44.9555 83.7655 45.3071 84.5624 45.7055C84.8905 45.8696 85.3124 45.893 85.664 45.8696C86.578 45.7524 86.6483 45.2602 86.6483 44.2055C86.6483 43.4555 87.0468 42.7055 87.0468 42.7055C87.0468 42.7055 89.7186 43.3617 91.9452 43.643C94.1718 43.9242 95.0858 43.4789 95.9061 42.5649C96.3749 42.0258 96.5624 41.3461 96.4452 40.6899Z" fill="#F6AD86"/>
<path d="M78.0469 61.3853C78.0469 61.3853 76.3594 58.2915 77.4376 52.3384H91.336C91.336 52.3384 91.5235 56.8618 91.2188 61.3853H78.0469Z" fill="#3A63A9"/>
<path d="M93.5153 34.1275L91.8982 34.4556L90.1638 34.8072C89.0857 32.7212 87.82 30.3775 86.6013 28.1978C86.156 27.4009 86.4607 26.3931 87.2575 25.9478C88.0544 25.5025 89.0622 25.8072 89.5075 26.6041C90.281 28.0103 91.9919 31.1509 93.5153 34.1275Z" fill="#ED8C61"/>
<path d="M77.8827 27.0026C77.6718 26.112 76.7577 25.5729 75.8905 25.8073C71.9061 26.7917 69.1405 27.6823 67.2186 28.5026C62.789 30.3776 62.8358 31.7604 62.8358 32.4635C62.8593 33.2604 63.0233 34.8307 72.5624 38.2995C72.5624 38.5807 72.2577 39.6588 72.0702 40.0104C71.6249 40.8073 72.0936 41.5807 72.5624 42.3542C72.7265 42.612 73.1015 42.9401 73.5468 42.9401C74.1327 42.9401 74.8593 42.1901 74.953 41.5807C75.3046 39.3541 75.2577 38.0417 75.1405 37.7838C75.1405 37.7604 75.1171 37.737 75.1171 37.7135C75.0702 37.6432 75.0468 37.5729 74.9999 37.5026C74.9765 37.4557 74.9296 37.4323 74.9061 37.3854C74.8593 37.3385 74.8358 37.2917 74.789 37.2682C74.7186 37.1979 74.6483 37.151 74.578 37.1042C74.5546 37.1042 74.5546 37.0807 74.5311 37.0807C74.414 37.0104 74.2968 36.9401 74.1796 36.8932C70.9452 35.5573 67.9218 33.401 66.5858 32.4635C67.0546 32.2057 67.7108 31.8776 68.5311 31.5729C70.5702 30.7526 73.5702 29.7917 76.6405 29.0417C77.5546 28.7838 78.0936 27.8932 77.8827 27.0026Z" fill="#F6AD86"/>
<path d="M93.7733 33.4012L91.5468 33.8231L89.8124 34.1512L88.3358 34.4324C86.4374 30.7059 85.9921 29.8621 85.9218 28.5965C85.8514 27.1668 86.2264 26.4403 87.1639 25.9246C88.1014 25.409 89.2733 25.7371 89.7889 26.6746C89.8358 26.7449 91.8514 29.6278 93.7733 33.4012Z" fill="#E8E8E8"/>
<path d="M99.8204 79.7605C99.6094 81.1199 98.8829 82.5964 97.8516 84.4011C96.1172 87.4011 93.4688 90.7527 91.0782 93.5417C89.4141 95.4871 87.8907 97.1746 86.9297 98.323C86.5078 98.8152 86.1797 99.2136 85.9922 99.4714L84.0235 96.9402C84.75 95.9089 85.4297 94.5261 86.2735 93.237C86.2969 93.2136 86.3203 93.1667 86.3438 93.1433C87.9375 90.7292 89.6485 88.0105 91.0078 85.5261C91.0547 85.4324 91.1016 85.362 91.1485 85.2683C92.6016 82.6433 93.6797 80.323 93.8907 78.9636C94.2657 76.5495 90.6328 69.0027 87.0469 62.3464C86.6485 61.573 86.2266 60.823 85.8282 60.0964C85.6875 59.8386 85.6172 59.5808 85.5938 59.2995C85.5 58.0808 86.3907 56.6745 87.4922 56.0652C88.8282 55.3152 90.5625 54.9402 91.3125 56.2761C92.836 59.0417 100.734 73.8308 99.8204 79.7605Z" fill="#3A63A9"/>
<path d="M91.0779 93.5415C89.4138 95.4868 87.8904 97.1743 86.9294 98.3228C86.7654 96.9634 86.6013 95.4868 86.4372 93.9868C86.4138 93.7056 86.3669 93.4009 86.3435 93.1196C87.9372 90.7056 89.6482 87.9868 91.0075 85.5024C91.1013 87.9634 91.1013 90.8462 91.0779 93.5415Z" fill="#2D548D"/>
<path d="M90.7265 80.5101C90.0468 74.9554 85.3827 60.0257 84.6562 58.3851C84.0468 56.9789 80.6718 56.6742 79.2655 57.307C77.8593 57.9164 77.2265 59.557 77.8358 60.9632C79.7108 65.2289 85.0312 76.6429 85.5702 80.6742C85.8749 83.0883 86.2968 87.9398 87.0468 92.0883C87.5858 94.9711 88.1249 97.7836 88.5233 99.8226C88.8749 101.604 88.8749 101.276 88.8983 101.44L92.2265 100.924C92.2265 100.924 91.5233 87.0726 90.7265 80.5101Z" fill="#3A63A9"/>
<path d="M76.664 28.995C73.5937 29.745 70.5937 30.7059 68.5546 31.5262L67.1952 28.4793C69.1171 27.6825 71.8827 26.7684 75.8671 25.784C76.7577 25.5731 77.6484 26.1121 77.8593 26.9793C78.0937 27.8934 77.5546 28.784 76.664 28.995Z" fill="#ED8C61"/>
<path d="M75.9141 25.737C76.9688 25.573 77.7422 26.0886 78.0235 27.1198C78.3047 28.1511 77.6016 28.948 76.6641 29.487C75.5391 30.1433 75.1406 30.2839 70.3828 31.9245L67.7344 28.2683C73.8282 25.9011 74.1328 25.9948 75.9141 25.737Z" fill="#E8E8E8"/>
<path d="M83.836 25.5494C83.7423 25.5494 83.6485 25.5494 83.5782 25.5494C82.1485 25.5494 80.836 25.0807 79.8048 24.2603C79.7579 22.9478 79.8985 21.8228 79.9688 21.4478C80.1329 20.3932 81.1173 19.6432 82.1954 19.8072C83.2501 19.9713 84.0001 20.9557 83.836 22.0338C83.7423 22.5963 83.7189 23.2525 83.7189 23.8619C83.672 24.4713 83.7189 25.0807 83.836 25.5494Z" fill="#ED8C61"/>
<path d="M89.3437 18.6119C88.5703 22.1979 86.5781 24.8229 83.1328 24.8229C79.7109 24.8229 77.5546 22.2213 76.9218 18.6119C76.3593 15.2369 79.7109 11.9323 83.1328 11.9323C86.6015 11.9088 90.0703 15.2604 89.3437 18.6119Z" fill="#F6AD86"/>
<path d="M89.8125 101.463L89.7891 101.37C88.8516 95.5571 87.4219 86.7915 86.7187 81.2603C86.2031 77.229 81.2109 65.2759 79.3359 61.0103C79.3125 60.9868 79.3125 60.9399 79.3125 60.9165C79.3125 60.8931 79.3125 60.8931 79.289 60.8696C78.9844 60.0493 78.0703 57.0024 78.9375 52.1978L79.2187 52.2446C78.3515 56.979 79.2656 59.9556 79.5469 60.7759C79.5469 60.7993 79.5703 60.8228 79.5703 60.8462C79.5703 60.8696 79.5703 60.8931 79.5937 60.9165C81.4687 65.1821 86.4609 77.1821 86.9766 81.2368C87.7031 86.7446 89.1094 95.5337 90.0469 101.346L90.0703 101.44L89.8125 101.463Z" fill="#658BC1"/>
<path d="M85.3593 25.7134C85.3593 26.5571 85.0312 27.9634 82.8281 27.9634C81.2343 27.9634 79.2187 27.2837 78.4687 25.9946L78.3047 25.7134H85.3593V25.7134Z" fill="#C8D6DB"/>
<path d="M78.9607 25.7134C79.5466 26.7446 81.3044 27.4009 82.8279 27.4009C84.3513 27.4009 84.7966 26.6509 84.7966 25.7134H78.9607Z" fill="#F6AD86"/>
<path d="M87.3046 43.0337C87.3046 43.0103 87.3983 42.0728 86.414 40.7134L87.328 40.1743C88.4764 41.8853 88.3593 43.104 88.3593 43.1743L87.3046 43.0337Z" fill="#82AACE"/>
<path d="M86.6013 40.1976C87.117 39.9632 87.7967 40.0804 88.1482 40.4554C88.4763 40.8304 88.3357 41.346 87.7967 41.5804C87.281 41.8148 86.6013 41.6976 86.2498 41.3226C85.9217 40.9241 86.0623 40.4319 86.6013 40.1976Z" fill="#4E7DB0"/>
<path d="M89.2032 14.0181C87.3282 10.9946 82.711 10.7603 81.8204 10.8071C81.3516 10.8306 80.3203 11.1118 79.875 11.8149C79.8516 11.3228 79.875 10.8774 79.875 10.8774C79.4766 11.3696 79.4063 11.7915 79.4766 12.1196C79.1954 11.7446 79.0079 11.3462 79.0079 11.3462C78.9375 11.8618 79.0782 12.1665 79.2891 12.3306C78.0235 12.6353 76.4063 14.4165 76.9688 18.0728C77.2032 19.6665 80.8125 18.4478 81.8204 16.854C82.5 17.9556 83.8594 18.1899 83.8594 18.1899C83.3907 17.7212 82.9688 17.0181 82.6407 16.3149C84.5625 17.4868 87.1172 18.7524 87.4219 19.5259C87.4219 19.5259 87.9844 18.2837 87.5625 17.4868C87.5625 17.4868 89.086 17.8618 89.2735 19.3853C89.25 19.3384 91.1953 17.2524 89.2032 14.0181Z" fill="#424344"/>
<path d="M84.7148 52.19L84.4372 52.2349L85.9549 61.6287L86.2326 61.5838L84.7148 52.19Z" fill="#658BC1"/>
<path d="M85.8044 59.8384L85.7575 59.5571C85.7575 59.5571 86.3435 59.4634 86.6482 59.0181C86.8357 58.7603 86.8825 58.4321 86.8357 58.0571L85.8747 52.104L86.156 52.0571L87.1169 58.0103C87.1872 58.479 87.1169 58.8774 86.8825 59.1821C86.5075 59.7446 85.8279 59.8384 85.8044 59.8384Z" fill="#658BC1"/>
<path d="M76.7343 18.237C76.453 18.8464 76.4999 19.5027 76.7577 20.0652C77.0624 20.7214 78.0233 20.6745 78.3046 20.0183L79.1015 18.237C79.4061 17.5808 78.7968 16.8542 78.0937 17.0417C77.5077 17.2292 76.9921 17.6511 76.7343 18.237Z" fill="#F6AD86"/>
<defs>
<linearGradient id="paint0_linear_107_6740" x1="112.314" y1="108.249" x2="-6.59312" y2="-0.984904" gradientUnits="userSpaceOnUse">
<stop stop-color="#6FC7DA"/>
<stop offset="0.3693" stop-color="#0D71B9"/>
<stop offset="0.7613" stop-color="#9E1460"/>
<stop offset="1" stop-color="#E7267A"/>
</linearGradient>
<linearGradient id="paint1_linear_107_6740" x1="62.2983" y1="42.4921" x2="10.7441" y2="-12.1902" gradientUnits="userSpaceOnUse">
<stop stop-color="#6FC7DA"/>
<stop offset="1" stop-color="#9E1460"/>
</linearGradient>
<linearGradient id="paint2_linear_107_6740" x1="37.7701" y1="93.1803" x2="8.4393" y2="89.9723" gradientUnits="userSpaceOnUse">
<stop stop-color="#6FC7DA"/>
<stop offset="0.6927" stop-color="#9E1460"/>
<stop offset="1" stop-color="#E7267A"/>
</linearGradient>
</defs>
</svg>
