<svg width="59" height="12" viewBox="0 0 59 12" fill="none" xmlns="http://www.w3.org/2000/svg">
<path d="M35.512 0.791992V10.62H33.118V6.57399H29.394V10.62H27V0.791992H29.394V4.64199H33.118V0.791992H35.512Z" fill="#161616"/>
<path d="M39.6342 0.791992V10.62H37.2402V0.791992H39.6342Z" fill="#161616"/>
<path d="M45.0511 0.791992C46.0871 0.791992 46.9925 0.997325 47.7671 1.40799C48.5418 1.81866 49.1391 2.39733 49.5591 3.14399C49.9885 3.88133 50.2031 4.73533 50.2031 5.70599C50.2031 6.66733 49.9885 7.52133 49.5591 8.26799C49.1391 9.01466 48.5371 9.59333 47.7531 10.004C46.9785 10.4147 46.0778 10.62 45.0511 10.62H41.3691V0.791992H45.0511ZM44.8971 8.54799C45.8025 8.54799 46.5071 8.30066 47.0111 7.80599C47.5151 7.31133 47.7671 6.61133 47.7671 5.70599C47.7671 4.80066 47.5151 4.09599 47.0111 3.59199C46.5071 3.08799 45.8025 2.83599 44.8971 2.83599H43.7631V8.54799H44.8971Z" fill="#161616"/>
<path d="M53.935 2.70999V4.69799H57.141V6.54599H53.935V8.70199H57.561V10.62H51.541V0.791992H57.561V2.70999H53.935Z" fill="#161616"/>
</svg>
