<svg width="59" height="12" viewBox="0 0 59 12" fill="none" xmlns="http://www.w3.org/2000/svg">
<path d="M35.512 0.792236V10.6202H33.118V6.57424H29.394V10.6202H27V0.792236H29.394V4.64224H33.118V0.792236H35.512Z" fill="#161616"/>
<path d="M39.6342 0.792236V10.6202H37.2402V0.792236H39.6342Z" fill="#161616"/>
<path d="M45.0511 0.792236C46.0871 0.792236 46.9925 0.99757 47.7671 1.40824C48.5418 1.8189 49.1391 2.39757 49.5591 3.14424C49.9885 3.88157 50.2031 4.73557 50.2031 5.70624C50.2031 6.66757 49.9885 7.52157 49.5591 8.26824C49.1391 9.0149 48.5371 9.59357 47.7531 10.0042C46.9785 10.4149 46.0778 10.6202 45.0511 10.6202H41.3691V0.792236H45.0511ZM44.8971 8.54824C45.8025 8.54824 46.5071 8.3009 47.0111 7.80624C47.5151 7.31157 47.7671 6.61157 47.7671 5.70624C47.7671 4.8009 47.5151 4.09624 47.0111 3.59224C46.5071 3.08824 45.8025 2.83624 44.8971 2.83624H43.7631V8.54824H44.8971Z" fill="#161616"/>
<path d="M53.935 2.71024V4.69824H57.141V6.54624H53.935V8.70224H57.561V10.6202H51.541V0.792236H57.561V2.71024H53.935Z" fill="#161616"/>
</svg>
