<svg width="59" height="12" viewBox="0 0 59 12" fill="none" xmlns="http://www.w3.org/2000/svg">
<path d="M39.836 10.7181C39.1173 10.7181 38.4733 10.6014 37.904 10.3681C37.3347 10.1348 36.8773 9.78943 36.532 9.3321C36.196 8.87477 36.0187 8.3241 36 7.6801H38.548C38.5853 8.0441 38.7113 8.3241 38.926 8.5201C39.1407 8.70677 39.4207 8.8001 39.766 8.8001C40.1207 8.8001 40.4007 8.72077 40.606 8.5621C40.8113 8.3941 40.914 8.16543 40.914 7.8761C40.914 7.63343 40.83 7.43277 40.662 7.2741C40.5033 7.11543 40.3027 6.98477 40.06 6.8821C39.8267 6.77943 39.4907 6.66277 39.052 6.5321C38.4173 6.3361 37.8993 6.1401 37.498 5.9441C37.0967 5.7481 36.7513 5.45877 36.462 5.0761C36.1727 4.69343 36.028 4.1941 36.028 3.5781C36.028 2.66343 36.3593 1.94943 37.022 1.4361C37.6847 0.913433 38.548 0.6521 39.612 0.6521C40.6947 0.6521 41.5673 0.913433 42.23 1.4361C42.8927 1.94943 43.2473 2.6681 43.294 3.5921H40.704C40.6853 3.27477 40.5687 3.02743 40.354 2.8501C40.1393 2.66343 39.864 2.5701 39.528 2.5701C39.2387 2.5701 39.0053 2.64943 38.828 2.8081C38.6507 2.95743 38.562 3.17677 38.562 3.4661C38.562 3.78343 38.7113 4.03077 39.01 4.2081C39.3087 4.38543 39.7753 4.57677 40.41 4.7821C41.0447 4.99677 41.558 5.2021 41.95 5.3981C42.3513 5.5941 42.6967 5.87877 42.986 6.2521C43.2753 6.62543 43.42 7.1061 43.42 7.6941C43.42 8.2541 43.2753 8.76277 42.986 9.2201C42.706 9.67743 42.2953 10.0414 41.754 10.3121C41.2127 10.5828 40.5733 10.7181 39.836 10.7181Z" fill="#161616"/>
<path d="M47.2873 2.7101V4.6981H50.4933V6.5461H47.2873V8.7021H50.9133V10.6201H44.8933V0.792099H50.9133V2.7101H47.2873Z" fill="#161616"/>
<path d="M54.8615 2.7101V4.6981H58.0675V6.5461H54.8615V8.7021H58.4875V10.6201H52.4675V0.792099H58.4875V2.7101H54.8615Z" fill="#161616"/>
</svg>
