<svg width="120" height="121" viewBox="0 0 120 121" fill="none" xmlns="http://www.w3.org/2000/svg">
<path d="M44.9298 24.3199C42.5861 25.3043 33.5158 29.0777 28.4533 38.8511C27.3751 40.9371 22.3126 50.7105 26.0392 59.3355C30.9845 70.773 46.0314 67.9839 52.9454 78.7418C58.8751 87.9996 46.5704 97.0933 51.8673 108.109C54.6329 113.851 61.0079 118.656 66.8908 119.101C85.2892 120.484 118.336 80.8511 104.906 49.7496C95.1095 27.1558 63.8908 16.4214 44.9298 24.3199Z" fill="url(#paint0_linear_107_7270)"/>
<path d="M82.4296 42.0856L48.5624 29.5231C47.5312 29.1481 46.4062 29.6637 46.0312 30.6949L23.1562 92.2652C22.7812 93.2965 23.2968 94.4215 24.328 94.7965L58.1952 107.359C59.2265 107.734 60.3515 107.218 60.7265 106.187L83.6015 44.5934C83.9765 43.5856 83.4609 42.4606 82.4296 42.0856Z" fill="#2D548D"/>
<path opacity="0.09" d="M62.1328 73.6328C61.2891 73.6328 60.4219 73.6093 59.5313 73.5624C46.3828 72.8359 35.6484 66.9765 30.8203 57.9062C23.1094 43.4218 30.6797 23.2421 42.2813 16.8906C48.1406 13.6562 53.2266 13.75 56.4609 14.4062C61.9922 15.5078 66.0703 18.0625 67.9453 21.5781C69.9609 25.3515 68.8828 28.8906 67.7344 32.6171C66.7031 35.9687 65.6484 39.414 66.9141 43.1406C68.0391 46.4687 70.9688 47.5 74.0859 48.6015C77.25 49.7265 80.5313 50.875 82.2891 54.5078C84.1406 58.3515 83.9063 63.6015 81.7734 66.7656C78.8672 70.9843 71.1797 73.6328 62.1328 73.6328ZM52.8047 14.3125C49.9219 14.3125 46.3359 14.9687 42.4219 17.125C30.9375 23.4296 23.4375 43.4453 31.0781 57.789C35.8594 66.789 46.5234 72.5781 59.5781 73.3046C69.6094 73.8671 78.4453 71.1718 81.5625 66.6249C83.6484 63.5546 83.8828 58.3984 82.0547 54.6484C80.3438 51.1093 77.1328 49.9843 74.0156 48.8828C70.8516 47.7578 67.8516 46.7031 66.6797 43.2578C65.3906 39.4375 66.4688 35.9453 67.5 32.5468C68.625 28.8671 69.7031 25.375 67.7344 21.6953C65.9063 18.25 61.875 15.7422 56.4375 14.664C55.3828 14.4531 54.1641 14.3125 52.8047 14.3125Z" fill="#AAAAD5"/>
<path opacity="0.2" d="M74.2267 39.0386L70.4767 41.5464L37.7345 63.5308L32.5548 67.0229L39.6798 47.7808L44.8829 44.2886L56.6251 36.3901L60.3751 33.8823L74.2267 39.0386Z" fill="#EEEDF3"/>
<path opacity="0.2" d="M81.6798 41.8042L77.9298 44.312L33.8907 73.8901L28.6876 77.3589L31.2188 70.5855L36.3985 67.1167V67.0933L73.0548 42.5073L76.8048 39.9761L81.6798 41.8042Z" fill="#EEEDF3"/>
<path d="M82.4295 42.0856L81.6795 41.8043L76.8045 39.9996L74.2264 39.0387L60.3749 33.9059L48.5624 29.5231C47.5545 29.1481 46.4061 29.6637 46.0311 30.6949L39.6795 47.8043L32.5311 67.0465L31.1952 70.6324L28.6874 77.4059L23.1561 92.3121C23.0858 92.4996 23.0624 92.6871 23.0389 92.8746C22.9686 93.7184 23.4842 94.5387 24.328 94.8434L30.6092 97.1871L35.3436 98.9449L47.8592 103.586L52.4295 105.273L58.1952 107.406C59.203 107.781 60.3514 107.265 60.7264 106.257L83.1795 45.7887L83.6014 44.6637C83.9764 43.5856 83.4608 42.4606 82.4295 42.0856ZM79.2186 45.9059L78.7498 47.1949L59.4139 99.2965C59.203 99.8356 58.5936 100.14 58.0311 99.9293L53.7889 98.359L48.6561 96.4606L38.0624 92.523L33.2108 90.7184L29.3436 89.2887C28.9217 89.1246 28.6639 88.7496 28.6639 88.3277C28.6639 88.1871 28.6639 88.0465 28.7342 87.9059L33.9374 73.9137L36.4452 67.1402L37.7811 63.5543L44.9295 44.3121L48.5624 34.5387C48.7733 33.9996 49.3827 33.6949 49.9217 33.9059L56.6717 36.4137L70.5233 41.5465L73.1014 42.5074L77.9764 44.3121L78.6092 44.5465C79.1483 44.7574 79.4295 45.3668 79.2186 45.9059Z" fill="#EEEDF3"/>
<path d="M40.3123 98.5466C39.3514 98.1951 38.8592 97.1169 39.2107 96.156C39.5623 95.1951 40.6404 94.7029 41.6014 95.0544C42.5623 95.406 43.0545 96.4841 42.7029 97.4451C42.3279 98.4294 41.2498 98.8982 40.3123 98.5466Z" fill="#C9C7D9"/>
<path opacity="0.1" d="M62.9531 5.75741L15.6797 21.4137C14.5312 21.7887 13.9219 23.0308 14.2969 24.1558L18.8906 37.984C19.2656 39.1324 20.5078 39.7418 21.6328 39.3668L26.2969 37.8199L28.5703 37.0699C29.1562 37.4449 30.6094 38.4293 31.1953 38.7808C31.7344 39.0855 32.4375 38.8512 32.6953 38.2887C32.9766 37.6558 33.5625 36.0152 33.7969 35.359L45.2812 31.5387L68.9062 23.7105C70.0547 23.3355 70.6641 22.0933 70.2891 20.9683L65.6953 7.14022C65.3203 5.99179 64.1016 5.38241 62.9531 5.75741Z" fill="#3F3F3F"/>
<path d="M62.953 2.10131L12.2342 18.906C11.0155 19.3044 10.3592 20.6404 10.7577 21.8591L15.6796 36.6951C16.078 37.9138 17.4139 38.5701 18.6327 38.1716L23.6249 36.5076L26.0624 35.7107C26.6717 36.1326 28.2421 37.1638 28.8749 37.5388C29.4374 37.8669 30.2108 37.6091 30.4921 36.9997C30.7733 36.3201 31.4296 34.5388 31.6639 33.8591L43.9921 29.781L69.3514 21.3669C70.5702 20.9685 71.2264 19.6326 70.828 18.4138L65.9061 3.57787C65.5077 2.35912 64.1952 1.70287 62.953 2.10131Z" fill="url(#paint1_linear_107_7270)"/>
<path d="M25.0778 25.8671C25.4294 25.2577 25.5232 24.5077 25.2888 23.7812L24.8903 22.5859C24.445 21.2499 23.0388 20.4296 21.6794 20.8281C20.2732 21.2499 19.5232 22.7265 19.9685 24.1093L20.3903 25.4218C20.6247 26.1484 21.1638 26.6874 21.7966 26.9687C20.3435 28.0702 19.4997 29.8281 19.6169 31.6796C19.6638 32.4062 20.3903 32.8515 21.07 32.6406L28.9919 30.0156C29.6716 29.7812 29.9763 28.9843 29.6013 28.3749C28.6169 26.7812 26.906 25.8671 25.0778 25.8671Z" fill="white"/>
<path d="M44.1561 13.3513L34.0545 16.7029C33.2342 16.9841 32.7889 17.8747 33.0467 18.695L34.6873 23.6638C34.9686 24.4841 35.8592 24.9294 36.6795 24.6716L37.6639 24.3435C37.6639 24.3435 39.5389 25.6091 40.1717 25.9841C40.6404 26.2419 41.2733 26.0544 41.4842 25.5388C41.7889 24.8591 42.5389 22.7263 42.5389 22.7263L46.7811 21.32C47.6014 21.0388 48.0467 20.1482 47.7889 19.3279L46.1483 14.3591C45.867 13.5154 44.9764 13.07 44.1561 13.3513Z" fill="white"/>
<path d="M35.8122 18.9997C35.4841 19.07 35.1325 18.906 35.0388 18.5778C34.9216 18.2263 35.1091 17.8513 35.4607 17.7575L43.6638 15.0388C43.9919 14.9216 44.3903 15.1091 44.4841 15.4607C44.6013 15.8122 44.4138 16.1872 44.0622 16.281L35.8591 18.9997C35.8357 18.9997 35.8357 18.9997 35.8122 18.9997Z" fill="#E2E1E1"/>
<path d="M36.5153 21.156C36.1872 21.2263 35.8357 21.0622 35.7419 20.7341C35.6247 20.3825 35.8122 20.0075 36.1638 19.9138L44.3669 17.195C44.695 17.0778 45.0935 17.2653 45.1872 17.6169C45.3044 17.9685 45.1169 18.3435 44.7653 18.4372L36.5622 21.156C36.5622 21.1325 36.5388 21.156 36.5153 21.156Z" fill="#E2E1E1"/>
<path d="M37.2422 23.2888C36.9141 23.3591 36.5625 23.195 36.4687 22.8669C36.3516 22.5153 36.5391 22.1403 36.8906 22.0466L40.5937 20.8278C40.9219 20.7107 41.2969 20.8982 41.4141 21.2497C41.5312 21.6013 41.3437 21.9763 40.9922 22.07L37.2891 23.2888C37.2656 23.2888 37.2656 23.2888 37.2422 23.2888Z" fill="#E2E1E1"/>
<path d="M65.2031 15.695C64.875 14.6872 64.2187 13.8435 63.4219 13.281L63.0703 12.2028C62.4609 10.3982 60.6797 9.34347 58.8515 9.60128L58.7578 9.2966C58.6406 8.94503 58.2656 8.75753 57.914 8.87472C57.5625 8.99191 57.375 9.36691 57.4922 9.71847L57.5859 10.0232C55.9687 10.8903 55.1719 12.8122 55.7578 14.6169L56.1094 15.695C55.8047 16.6325 55.7812 17.6872 56.1094 18.695L56.2734 19.1638C56.3437 19.3982 56.6015 19.5388 56.8359 19.445L58.6406 18.8357C58.664 18.9763 58.7344 19.1169 58.8984 19.1638C59.6484 19.4216 60.4922 19.4216 61.3125 19.1638C62.1328 18.906 62.789 18.3903 63.2578 17.7341C63.3515 17.5935 63.3516 17.4294 63.2812 17.3122L65.0859 16.7028C65.3203 16.6325 65.4609 16.3747 65.3672 16.1403L65.2031 15.695Z" fill="white"/>
<path d="M57.5157 18.6718C57.8672 19.7265 57.2813 20.8984 56.2266 21.2499C55.1719 21.6015 54 21.0156 53.6485 19.9609C53.2969 18.9062 53.8828 17.7343 54.9375 17.3828C56.0157 17.0312 57.1641 17.5937 57.5157 18.6718Z" fill="#E83C3B"/>
<path opacity="0.1" d="M113.953 45.5779L100.992 44.031C100.43 43.9607 99.9374 44.3591 99.8671 44.9216L98.3202 57.8826C98.2499 58.4451 98.6483 58.9373 99.2108 59.0076L112.172 60.5544C112.734 60.6248 113.226 60.2263 113.297 59.6638L114.844 46.7029C114.914 46.1638 114.516 45.6482 113.953 45.5779Z" fill="#3F3F3F"/>
<path d="M115.476 58.7499L100.336 56.9452C100.078 56.9218 99.8904 56.6874 99.9372 56.4296L101.742 41.2889C101.765 41.0311 102 40.8436 102.258 40.8905L117.398 42.6952C117.656 42.7186 117.844 42.953 117.797 43.2108L115.992 58.3514C115.969 58.5858 115.734 58.7733 115.476 58.7499Z" fill="#F8AA09"/>
<path d="M101.554 55.2812L103.054 42.7422C103.078 42.5781 103.219 42.4844 103.359 42.4844L115.898 43.9844C116.062 44.0078 116.156 44.1484 116.156 44.2891L114.656 56.8281C114.633 56.9922 114.492 57.0859 114.351 57.0859L101.812 55.5859C101.648 55.5859 101.554 55.4453 101.554 55.2812Z" fill="#FBBA38"/>
<path d="M109.172 50.875L107.718 52.0235C107.461 52.2344 107.062 52.1875 106.851 51.9297C106.64 51.6719 106.265 51.625 105.984 51.836L103.851 53.5235C103.429 53.8516 103.617 54.5547 104.156 54.625L104.414 54.6485L109.453 55.2578L112.289 55.586C112.828 55.6563 113.179 55.0235 112.851 54.6016L110.039 50.9688C109.828 50.711 109.429 50.6641 109.172 50.875Z" fill="#EE9F05"/>
<path d="M106.57 48.4373C106.5 49.0233 105.961 49.4452 105.375 49.3748C104.789 49.3045 104.367 48.7655 104.437 48.1795C104.507 47.5936 105.046 47.1717 105.632 47.242C106.218 47.3123 106.64 47.8514 106.57 48.4373Z" fill="#EE9F05"/>
<path opacity="0.1" d="M32.0156 82.3517C31.5235 80.7814 29.8594 79.9142 28.2891 80.4064L9.16407 86.4533C7.59376 86.9454 6.72657 88.6095 7.21876 90.1798L11.1563 102.625C11.6484 104.195 13.3125 105.063 14.8828 104.57L16.7578 103.985C16.7578 103.985 20.25 106.399 21.4688 107.125C22.336 107.641 23.5313 107.266 23.9531 106.328C24.5391 105.039 25.9922 101.055 25.9922 101.055L34.0078 98.5236C35.5781 98.0314 36.4453 96.3673 35.9531 94.797L32.0156 82.3517Z" fill="#3F3F3F"/>
<path d="M24.9844 77.5703L4.47656 84.0625C2.78906 84.6016 1.875 86.3828 2.39062 88.0703L6.60937 101.43C7.14843 103.117 8.92968 104.031 10.6172 103.516L12.6094 102.883C12.6094 102.883 16.3594 105.484 17.6484 106.258C18.5859 106.82 19.875 106.398 20.3203 105.414C20.9531 104.031 22.5 99.7422 22.5 99.7422L31.1016 97.0234C32.7891 96.4844 33.7031 94.7031 33.1875 93.0156L28.9687 79.6563C28.4766 77.9688 26.6719 77.0313 24.9844 77.5703Z" fill="url(#paint2_linear_107_7270)"/>
<path d="M25.0547 84.4844L8.4141 89.7578C7.87504 89.9219 7.2891 89.6406 7.12504 89.0781C6.96098 88.5391 7.26567 87.9531 7.80473 87.7891L24.4454 82.5157C24.9844 82.3516 25.5704 82.6328 25.7344 83.1953C25.8985 83.7344 25.5938 84.3203 25.0547 84.4844Z" fill="#EDB7D5"/>
<path d="M26.5311 89.1953L9.89045 94.4688C9.35139 94.6328 8.76545 94.3516 8.60139 93.7891C8.43733 93.25 8.74201 92.6641 9.28108 92.5L25.9217 87.2266C26.4608 87.0625 27.0467 87.3438 27.2108 87.9063C27.3748 88.4219 27.0701 89.0078 26.5311 89.1953Z" fill="#EDB7D5"/>
<path d="M18.8905 96.7656L11.3905 99.1328C10.8515 99.2969 10.2655 98.9922 10.1015 98.4531C9.93739 97.914 10.2421 97.3281 10.7811 97.164L18.2811 94.7969C18.8202 94.6328 19.4061 94.9375 19.5702 95.4765C19.7343 96.0156 19.4296 96.6015 18.8905 96.7656Z" fill="#EDB7D5"/>
<path opacity="0.1" d="M66.9142 54.2964C66.6329 53.1011 65.0392 52.8433 64.3829 53.898L61.7579 58.1401L60.2814 51.9761C59.9767 50.7339 58.7345 49.9605 57.4923 50.2651L40.547 54.2964C39.3048 54.6011 38.5314 55.8433 38.8361 57.0855L42.8673 74.0308C43.172 75.2729 44.4142 76.0464 45.6564 75.7417L62.6017 71.7104C63.8439 71.4058 64.6173 70.1636 64.3126 68.9214L62.8361 62.7573L67.0783 65.3823C68.1329 66.0386 69.4454 65.0776 69.1408 63.8823L66.9142 54.2964Z" fill="#3F3F3F"/>
<path d="M66.3987 49.2808L63.5862 53.8511L62.0159 47.2417C61.6878 45.9058 60.3518 45.0855 59.0159 45.3902L40.8284 49.7261C39.4924 50.0542 38.6721 51.3902 38.9768 52.7261L43.3128 70.9136C43.6409 72.2495 44.9768 73.0698 46.3128 72.7652L64.5003 68.4292C65.8362 68.1011 66.6565 66.7652 66.3518 65.4292L64.7815 58.8198L69.3518 61.6323C70.4768 62.3355 71.8831 61.3042 71.5784 60.0152L69.1175 49.7261C68.8128 48.437 67.1018 48.1558 66.3987 49.2808Z" fill="#E83B5B"/>
<path d="M49.4298 54.1792L56.0861 58.2573L51.9845 64.9136" fill="white"/>
<path d="M78.9433 80.547L51.2856 84.9526L53.7741 100.575L81.4318 96.1696L78.9433 80.547Z" fill="#E83C3B"/>
<path d="M66.3517 90.5781L78.9376 80.5703L51.2814 84.9766L66.3517 90.5781Z" fill="#EE7375"/>
<path d="M84.5625 107.382H100.383C100.852 107.382 101.25 106.984 101.25 106.515C101.25 106.046 100.852 105.648 100.383 105.648H84.5625C84.0937 105.648 83.6953 106.046 83.6953 106.515C83.6953 107.007 84.0703 107.382 84.5625 107.382Z" fill="#E2E2E1"/>
<path d="M89.7888 103.703L89.0388 99.1323L91.1013 98.4995L91.4294 103.375L89.7888 103.703Z" fill="#D7DDE9"/>
<path d="M91.4998 102.882C91.6404 102.906 91.7576 102.953 91.8748 103.046C92.6014 103.656 94.8279 104.734 95.9529 104.898C97.1717 105.086 97.242 105.671 95.5076 105.671C93.7967 105.671 92.5311 105.507 91.7811 105.531C91.0076 105.554 91.2186 105.671 89.3436 105.671C87.8905 105.671 88.3592 103.82 88.8748 102.976C89.0389 102.718 89.2498 102.578 89.5545 102.601L91.4998 102.882Z" fill="#ED9558"/>
<path d="M83.156 99.437L86.0154 95.8042L87.867 96.9058L84.5154 100.421L83.156 99.437Z" fill="#D7DDE9"/>
<path d="M84.9373 100.14C85.0076 100.257 85.0779 100.374 85.0779 100.515C85.1248 101.452 85.8514 103.89 86.7185 104.663C87.5857 105.46 87.0232 105.648 85.617 104.991C84.0701 104.265 83.7185 102.695 83.1795 102.156C82.6404 101.616 82.6873 101.827 81.4217 100.445C80.4373 99.3899 82.1014 98.4759 83.0857 98.2649C83.3904 98.1946 83.6248 98.2649 83.8123 98.5227L84.9373 100.14Z" fill="#ED9558"/>
<path d="M81.8671 22.187C81.8671 22.187 81.3046 25.937 82.3828 27.6714C83.4609 29.4058 83.6249 29.6636 83.6249 29.6636" fill="#ED8C61"/>
<path d="M84.6329 31.3277C84.3282 31.5152 83.9767 31.609 83.6485 31.609C82.9923 31.609 82.336 31.2809 81.9845 30.648C81.961 30.6246 81.7735 30.2965 80.7657 28.7027C80.0626 27.5777 79.8282 26.0543 79.8048 24.7183C79.7579 23.4058 79.8985 22.2808 79.9688 21.9058C80.1329 20.8512 81.1173 20.1012 82.1954 20.2652C83.2501 20.4293 84.0001 21.4137 83.836 22.4918C83.7423 23.0543 83.7188 23.7105 83.7188 24.3199C83.7188 24.9527 83.7657 25.5621 83.8595 26.0074C83.9063 26.2652 83.9767 26.4996 84.0704 26.6402C85.172 28.398 85.336 28.6793 85.336 28.6793C85.8751 29.5934 85.5704 30.7887 84.6329 31.3277Z" fill="#F6AD86"/>
<path d="M77.4374 52.7964C77.8359 47.1948 75.9609 33.2964 74.9999 27.7651C74.8593 26.9214 75.4921 26.1479 76.3593 26.1479H87.8671C88.4765 26.1479 89.039 26.5698 89.2031 27.1558C90.5156 32.1714 91.3593 52.7729 91.3593 52.7729H77.4374V52.7964Z" fill="#E8E8E8"/>
<path d="M96.4452 41.1479C96.2577 40.0932 94.9686 37.3979 93.539 34.5854C92.0155 31.6088 90.3046 28.4682 89.5077 27.0619C89.0624 26.2651 88.0546 25.9838 87.2577 26.4057C86.4608 26.851 86.1796 27.8588 86.6015 28.6557C87.8202 30.8588 89.0624 33.1791 90.164 35.2651C91.4062 37.6557 92.6015 39.1088 93.0936 40.2807C92.203 41.0541 89.9765 41.1244 88.2186 41.0073C87.7265 40.9604 85.8515 40.8198 84.6093 41.9682C84.1171 42.4135 83.5546 43.2338 83.6015 44.5229C83.6483 45.4135 83.7655 45.7651 84.5624 46.1635C84.8905 46.3276 85.3124 46.351 85.664 46.3276C86.578 46.2104 86.6483 45.7182 86.6483 44.6635C86.6483 43.9135 87.0468 43.1635 87.0468 43.1635C87.0468 43.1635 89.7186 43.8198 91.9452 44.101C94.1718 44.3823 95.0858 43.9369 95.9061 43.0229C96.3749 42.4838 96.5624 41.8041 96.4452 41.1479Z" fill="#F6AD86"/>
<path d="M78.0469 61.8433C78.0469 61.8433 76.3594 58.7495 77.4376 52.7964H91.336C91.336 52.7964 91.5235 57.3198 91.2188 61.8433H78.0469Z" fill="#3A63A9"/>
<path d="M93.5153 34.5855L91.8982 34.9136L90.1638 35.2652C89.0857 33.1793 87.82 30.8355 86.6013 28.6558C86.156 27.8589 86.4607 26.8511 87.2575 26.4058C88.0544 25.9605 89.0622 26.2652 89.5075 27.0621C90.281 28.4683 91.9919 31.6089 93.5153 34.5855Z" fill="#ED8C61"/>
<path d="M77.8827 27.4606C77.6718 26.57 76.7577 26.0309 75.8905 26.2653C71.9061 27.2497 69.1405 28.1403 67.2186 28.9606C62.789 30.8356 62.8358 32.2184 62.8358 32.9215C62.8593 33.7184 63.0233 35.2887 72.5624 38.7575C72.5624 39.0387 72.2577 40.1168 72.0702 40.4684C71.6249 41.2653 72.0936 42.0387 72.5624 42.8122C72.7265 43.07 73.1015 43.3981 73.5468 43.3981C74.1327 43.3981 74.8593 42.6481 74.953 42.0387C75.3046 39.8122 75.2577 38.4997 75.1405 38.2418C75.1405 38.2184 75.1171 38.195 75.1171 38.1715C75.0702 38.1012 75.0468 38.0309 74.9999 37.9606C74.9765 37.9137 74.9296 37.8903 74.9061 37.8434C74.8593 37.7965 74.8358 37.7497 74.789 37.7262C74.7186 37.6559 74.6483 37.609 74.578 37.5622C74.5546 37.5622 74.5546 37.5387 74.5311 37.5387C74.414 37.4684 74.2968 37.3981 74.1796 37.3512C70.9452 36.0153 67.9218 33.859 66.5858 32.9215C67.0546 32.6637 67.7108 32.3356 68.5311 32.0309C70.5702 31.2106 73.5702 30.2497 76.6405 29.4997C77.5546 29.2418 78.0936 28.3512 77.8827 27.4606Z" fill="#F6AD86"/>
<path d="M93.7733 33.8592L91.5468 34.2811L89.8124 34.6092L88.3358 34.8905C86.4374 31.1639 85.9921 30.3201 85.9218 29.0545C85.8514 27.6248 86.2264 26.8983 87.1639 26.3826C88.1014 25.867 89.2733 26.1951 89.7889 27.1326C89.8358 27.203 91.8514 30.0858 93.7733 33.8592Z" fill="#E8E8E8"/>
<path d="M99.8204 80.2185C99.6094 81.5779 98.8829 83.0544 97.8516 84.8591C96.1172 87.8591 93.4688 91.2107 91.0782 93.9997C89.4141 95.9451 87.8907 97.6326 86.9297 98.781C86.5078 99.2732 86.1797 99.6716 85.9922 99.9294L84.0235 97.3982C84.75 96.3669 85.4297 94.9841 86.2735 93.6951C86.2969 93.6716 86.3203 93.6247 86.3438 93.6013C87.9375 91.1872 89.6485 88.4685 91.0078 85.9841C91.0547 85.8904 91.1016 85.8201 91.1485 85.7263C92.6016 83.1013 93.6797 80.781 93.8907 79.4216C94.2657 77.0076 90.6328 69.4607 87.0469 62.8044C86.6485 62.031 86.2266 61.281 85.8282 60.5544C85.6875 60.2966 85.6172 60.0388 85.5938 59.7575C85.5 58.5388 86.3907 57.1325 87.4922 56.5232C88.8282 55.7732 90.5625 55.3982 91.3125 56.7341C92.836 59.4997 100.734 74.2888 99.8204 80.2185Z" fill="#3A63A9"/>
<path d="M91.0779 93.9995C89.4138 95.9448 87.8904 97.6323 86.9294 98.7808C86.7654 97.4214 86.6013 95.9448 86.4372 94.4448C86.4138 94.1636 86.3669 93.8589 86.3435 93.5776C87.9372 91.1636 89.6482 88.4448 91.0075 85.9604C91.1013 88.4214 91.1013 91.3042 91.0779 93.9995Z" fill="#2D548D"/>
<path d="M90.7265 80.9681C90.0468 75.4134 85.3827 60.4838 84.6562 58.8431C84.0468 57.4369 80.6718 57.1322 79.2655 57.765C77.8593 58.3744 77.2265 60.015 77.8358 61.4213C79.7108 65.6869 85.0312 77.1009 85.5702 81.1322C85.8749 83.5463 86.2968 88.3978 87.0468 92.5463C87.5858 95.4291 88.1249 98.2416 88.5233 100.281C88.8749 102.062 88.8749 101.734 88.8983 101.898L92.2265 101.382C92.2265 101.382 91.5233 87.5306 90.7265 80.9681Z" fill="#3A63A9"/>
<path d="M76.664 29.453C73.5937 30.203 70.5937 31.1639 68.5546 31.9842L67.1952 28.9373C69.1171 28.1405 71.8827 27.2264 75.8671 26.242C76.7577 26.0311 77.6484 26.5702 77.8593 27.4373C78.0937 28.3514 77.5546 29.242 76.664 29.453Z" fill="#ED8C61"/>
<path d="M75.9141 26.195C76.9688 26.031 77.7422 26.5466 78.0235 27.5778C78.3047 28.6091 77.6016 29.406 76.6641 29.945C75.5391 30.6013 75.1406 30.7419 70.3828 32.3825L67.7344 28.7263C73.8282 26.3591 74.1328 26.4528 75.9141 26.195Z" fill="#E8E8E8"/>
<path d="M83.836 26.0074C83.7423 26.0074 83.6485 26.0074 83.5782 26.0074C82.1485 26.0074 80.836 25.5387 79.8048 24.7183C79.7579 23.4058 79.8985 22.2808 79.9688 21.9058C80.1329 20.8512 81.1173 20.1012 82.1954 20.2652C83.2501 20.4293 84.0001 21.4137 83.836 22.4918C83.7423 23.0543 83.7189 23.7105 83.7189 24.3199C83.672 24.9293 83.7189 25.5387 83.836 26.0074Z" fill="#ED8C61"/>
<path d="M89.3437 19.0699C88.5703 22.6559 86.5781 25.2809 83.1328 25.2809C79.7109 25.2809 77.5546 22.6793 76.9218 19.0699C76.3593 15.6949 79.7109 12.3903 83.1328 12.3903C86.6015 12.3668 90.0703 15.7184 89.3437 19.0699Z" fill="#F6AD86"/>
<path d="M89.8125 101.921L89.7891 101.828C88.8516 96.0151 87.4219 87.2495 86.7187 81.7183C86.2031 77.687 81.2109 65.7339 79.3359 61.4683C79.3125 61.4448 79.3125 61.3979 79.3125 61.3745C79.3125 61.3511 79.3125 61.3511 79.289 61.3276C78.9844 60.5073 78.0703 57.4604 78.9375 52.6558L79.2187 52.7026C78.3515 57.437 79.2656 60.4136 79.5469 61.2339C79.5469 61.2573 79.5703 61.2808 79.5703 61.3042C79.5703 61.3276 79.5703 61.3511 79.5937 61.3745C81.4687 65.6401 86.4609 77.6401 86.9766 81.6948C87.7031 87.2026 89.1094 95.9917 90.0469 101.804L90.0703 101.898L89.8125 101.921Z" fill="#658BC1"/>
<path d="M85.3593 26.1714C85.3593 27.0151 85.0312 28.4214 82.8281 28.4214C81.2343 28.4214 79.2187 27.7417 78.4687 26.4526L78.3047 26.1714H85.3593V26.1714Z" fill="#C8D6DB"/>
<path d="M78.9607 26.1714C79.5466 27.2026 81.3044 27.8589 82.8279 27.8589C84.3513 27.8589 84.7966 27.1089 84.7966 26.1714H78.9607Z" fill="#F6AD86"/>
<path d="M87.3046 43.4917C87.3046 43.4683 87.3983 42.5308 86.414 41.1714L87.328 40.6323C88.4764 42.3433 88.3593 43.562 88.3593 43.6323L87.3046 43.4917Z" fill="#82AACE"/>
<path d="M86.6013 40.6556C87.117 40.4212 87.7967 40.5384 88.1482 40.9134C88.4763 41.2884 88.3357 41.804 87.7967 42.0384C87.281 42.2728 86.6013 42.1556 86.2498 41.7806C85.9217 41.3821 86.0623 40.89 86.6013 40.6556Z" fill="#4E7DB0"/>
<path d="M89.2032 14.4761C87.3282 11.4526 82.711 11.2183 81.8204 11.2651C81.3516 11.2886 80.3203 11.5698 79.875 12.273C79.8516 11.7808 79.875 11.3355 79.875 11.3355C79.4766 11.8276 79.4063 12.2495 79.4766 12.5776C79.1954 12.2026 79.0079 11.8042 79.0079 11.8042C78.9375 12.3198 79.0782 12.6245 79.2891 12.7886C78.0235 13.0933 76.4063 14.8745 76.9688 18.5308C77.2032 20.1245 80.8125 18.9058 81.8204 17.312C82.5 18.4136 83.8594 18.648 83.8594 18.648C83.3907 18.1792 82.9688 17.4761 82.6407 16.773C84.5625 17.9448 87.1172 19.2105 87.4219 19.9839C87.4219 19.9839 87.9844 18.7417 87.5625 17.9448C87.5625 17.9448 89.086 18.3198 89.2735 19.8433C89.25 19.7964 91.1953 17.7105 89.2032 14.4761Z" fill="#424344"/>
<path d="M84.7148 52.648L84.4372 52.6929L85.9549 62.0867L86.2326 62.0418L84.7148 52.648Z" fill="#658BC1"/>
<path d="M85.8044 60.2964L85.7575 60.0151C85.7575 60.0151 86.3435 59.9214 86.6482 59.4761C86.8357 59.2183 86.8825 58.8901 86.8357 58.5151L85.8747 52.562L86.156 52.5151L87.1169 58.4683C87.1872 58.937 87.1169 59.3354 86.8825 59.6401C86.5075 60.2026 85.8279 60.2964 85.8044 60.2964Z" fill="#658BC1"/>
<path d="M76.7343 18.695C76.453 19.3044 76.4999 19.9607 76.7577 20.5232C77.0624 21.1794 78.0233 21.1325 78.3046 20.4763L79.1015 18.695C79.4061 18.0388 78.7968 17.3122 78.0937 17.4997C77.5077 17.6872 76.9921 18.1091 76.7343 18.695Z" fill="#F6AD86"/>
<defs>
<linearGradient id="paint0_linear_107_7270" x1="112.314" y1="108.707" x2="-6.59312" y2="-0.526896" gradientUnits="userSpaceOnUse">
<stop stop-color="#6FC7DA"/>
<stop offset="0.3693" stop-color="#0D71B9"/>
<stop offset="0.7613" stop-color="#9E1460"/>
<stop offset="1" stop-color="#E7267A"/>
</linearGradient>
<linearGradient id="paint1_linear_107_7270" x1="62.2983" y1="42.9501" x2="10.7441" y2="-11.7322" gradientUnits="userSpaceOnUse">
<stop stop-color="#6FC7DA"/>
<stop offset="1" stop-color="#9E1460"/>
</linearGradient>
<linearGradient id="paint2_linear_107_7270" x1="37.7701" y1="93.6383" x2="8.4393" y2="90.4303" gradientUnits="userSpaceOnUse">
<stop stop-color="#6FC7DA"/>
<stop offset="0.6927" stop-color="#9E1460"/>
<stop offset="1" stop-color="#E7267A"/>
</linearGradient>
</defs>
</svg>
