<svg width="59" height="12" viewBox="0 0 59 12" fill="none" xmlns="http://www.w3.org/2000/svg">
<path d="M39.836 10.7183C39.1173 10.7183 38.4733 10.6017 37.904 10.3683C37.3347 10.135 36.8773 9.78968 36.532 9.33234C36.196 8.87501 36.0187 8.32434 36 7.68034H38.548C38.5853 8.04434 38.7113 8.32434 38.926 8.52034C39.1407 8.70701 39.4207 8.80034 39.766 8.80034C40.1207 8.80034 40.4007 8.72101 40.606 8.56234C40.8113 8.39434 40.914 8.16568 40.914 7.87634C40.914 7.63368 40.83 7.43301 40.662 7.27434C40.5033 7.11568 40.3027 6.98501 40.06 6.88234C39.8267 6.77968 39.4907 6.66301 39.052 6.53234C38.4173 6.33634 37.8993 6.14034 37.498 5.94434C37.0967 5.74834 36.7513 5.45901 36.462 5.07634C36.1727 4.69368 36.028 4.19434 36.028 3.57834C36.028 2.66368 36.3593 1.94968 37.022 1.43634C37.6847 0.913677 38.548 0.652344 39.612 0.652344C40.6947 0.652344 41.5673 0.913677 42.23 1.43634C42.8927 1.94968 43.2473 2.66834 43.294 3.59234H40.704C40.6853 3.27501 40.5687 3.02768 40.354 2.85034C40.1393 2.66368 39.864 2.57034 39.528 2.57034C39.2387 2.57034 39.0053 2.64968 38.828 2.80834C38.6507 2.95768 38.562 3.17701 38.562 3.46634C38.562 3.78368 38.7113 4.03101 39.01 4.20834C39.3087 4.38568 39.7753 4.57701 40.41 4.78234C41.0447 4.99701 41.558 5.20234 41.95 5.39834C42.3513 5.59434 42.6967 5.87901 42.986 6.25234C43.2753 6.62568 43.42 7.10634 43.42 7.69434C43.42 8.25434 43.2753 8.76301 42.986 9.22034C42.706 9.67768 42.2953 10.0417 41.754 10.3123C41.2127 10.583 40.5733 10.7183 39.836 10.7183Z" fill="#161616"/>
<path d="M47.2873 2.71034V4.69834H50.4933V6.54634H47.2873V8.70234H50.9133V10.6203H44.8933V0.792344H50.9133V2.71034H47.2873Z" fill="#161616"/>
<path d="M54.8615 2.71034V4.69834H58.0675V6.54634H54.8615V8.70234H58.4875V10.6203H52.4675V0.792344H58.4875V2.71034H54.8615Z" fill="#161616"/>
</svg>
