<svg width="120" height="121" viewBox="0 0 120 121" fill="none" xmlns="http://www.w3.org/2000/svg">
<path d="M6.64649 90.602L48.4465 114.894C49.3324 115.41 50.7596 115.41 51.6456 114.902L115.159 78.2274C116.045 77.7188 116.045 76.8903 115.159 76.3736L73.3592 52.0821C72.4815 51.5735 71.0543 51.5735 70.1683 52.0821L6.6547 88.7483C5.76879 89.265 5.76058 90.0935 6.64649 90.602Z" fill="#AABAFD"/>
<path d="M56.0413 93.0705C55.5419 93.3589 55.5448 93.8287 56.0411 94.1171L66.3449 100.105C66.8411 100.393 67.6523 100.397 68.1518 100.108L88.4566 88.3853C88.9561 88.0969 88.9531 87.6271 88.4569 87.3387L78.153 81.3507C77.6568 81.0623 76.8456 81.0591 76.3462 81.3475L56.0413 93.0705Z" fill="#2E4277"/>
<path d="M5.9903 89.6832L5.9985 92.1283C5.9985 92.4564 6.21995 92.7927 6.65471 93.047L48.4547 117.338C49.3406 117.847 50.7679 117.847 51.6538 117.338L115.167 80.6723C115.61 80.418 115.832 80.0818 115.832 79.7372L115.824 77.3003C115.824 77.6366 115.602 77.9729 115.159 78.2272L51.6456 114.902C50.7597 115.41 49.3324 115.41 48.4465 114.893L6.6465 90.6019C6.20358 90.3476 5.9903 90.0195 5.9903 89.6832Z" fill="#798FFE"/>
<path d="M70.0447 3.71445C70.9298 3.20347 71.6496 3.61365 71.6525 4.63067L71.7658 49.3154C71.7686 50.3264 71.0535 51.5711 70.1684 52.0821L7.57002 88.2199C6.68495 88.7308 5.96512 88.3147 5.96224 87.3036L5.84901 42.6189C5.84613 41.6019 6.56128 40.3632 7.44635 39.8522L70.0447 3.71445Z" fill="#1B2A4F"/>
<path d="M4.16803 41.6449L4.28287 86.3279C4.28287 86.8283 4.46335 87.1892 4.75044 87.3533L6.42933 88.3296C6.1422 88.1656 5.96177 87.8047 5.96177 87.3043L5.84693 42.6213C5.84693 41.6041 6.56057 40.3655 7.44648 39.8488L70.0452 3.71506C70.4881 3.46078 70.8901 3.43621 71.1854 3.60022L69.5065 2.62388C69.2194 2.45982 68.8093 2.48439 68.3663 2.73867L5.76758 38.8806C4.88167 39.3892 4.16803 40.6278 4.16803 41.6449Z" fill="#384E85"/>
<path d="M8.10846 42.0738L8.2174 85.242L69.5065 49.8601L69.3976 6.69189L8.10846 42.0738Z" fill="#384E85"/>
<path d="M8.10846 42.0738L8.12675 49.3143L69.4158 13.9325L69.3976 6.69189L8.10846 42.0738Z" fill="#AABAFD"/>
<path d="M59.2921 15.2581C59.883 14.917 60.3633 15.179 60.3652 15.8579C60.3671 16.5368 59.8899 17.3635 59.299 17.7047C58.7183 18.0399 58.2379 17.7662 58.236 17.0872C58.2341 16.4083 58.7114 15.5934 59.2921 15.2581Z" fill="white"/>
<path d="M62.7048 13.2875C63.2855 12.9522 63.7659 13.2143 63.7678 13.8932C63.7697 14.5721 63.2925 15.3988 62.7118 15.734C62.1209 16.0752 61.6405 15.8014 61.6386 15.1225C61.6367 14.4435 62.114 13.6286 62.7048 13.2875Z" fill="white"/>
<path d="M66.1075 11.323C66.6984 10.9819 67.1787 11.2439 67.1806 11.9229C67.1825 12.6018 66.7053 13.4285 66.1144 13.7696C65.5235 14.1108 65.0432 13.837 65.0413 13.158C65.0393 12.4791 65.5166 11.6642 66.1075 11.323Z" fill="white"/>
<path d="M19.4649 87.6033L15.4528 89.9349L13.7245 88.937L17.7365 86.6055L19.4649 87.6033Z" fill="#384E85"/>
<path d="M62.6343 62.5159L58.6168 64.8507L56.8884 63.8528L60.906 61.5181L62.6343 62.5159Z" fill="#384E85"/>
<path d="M73.4267 56.2439L69.4092 58.5787L67.6808 57.5809L71.6984 55.2461L73.4267 56.2439Z" fill="#384E85"/>
<path d="M66.226 70.8443L62.214 73.1759L58.6465 71.1162L62.6586 68.7847L66.226 70.8443Z" fill="#384E85"/>
<path d="M86.0147 69.766L81.9972 72.1007L78.4242 70.0379L82.4417 67.7031L86.0147 69.766Z" fill="#384E85"/>
<path d="M91.4137 66.6286L87.3961 68.9633L79.3251 64.3035L83.3427 61.9688L91.4137 66.6286Z" fill="#384E85"/>
<path d="M77.9248 58.8407L70.5171 63.1456L66.9441 61.0827L74.3518 56.7778L77.9248 58.8407Z" fill="#384E85"/>
<path d="M69.1413 63.9452L65.1237 66.2799L61.5507 64.2171L65.5683 61.8823L69.1413 63.9452Z" fill="#384E85"/>
<path d="M82.4173 61.4347L73.0008 66.9069L69.4334 64.8473L78.8499 59.375L82.4173 61.4347Z" fill="#384E85"/>
<path d="M71.6249 67.7061L67.6073 70.0409L64.0399 67.9812L68.0575 65.6465L71.6249 67.7061Z" fill="#384E85"/>
<path d="M76.1231 70.3031L72.1056 72.6378L68.5326 70.575L72.5501 68.2402L76.1231 70.3031Z" fill="#384E85"/>
<path d="M63.7423 67.0829L59.7248 69.4176L56.1518 67.3548L60.1693 65.02L63.7423 67.0829Z" fill="#384E85"/>
<path d="M57.2354 65.6531L53.2234 67.9847L51.4951 66.9868L55.5071 64.6553L57.2354 65.6531Z" fill="#384E85"/>
<path d="M51.8421 68.7879L47.8246 71.1226L46.0963 70.1248L50.1138 67.79L51.8421 68.7879Z" fill="#384E85"/>
<path d="M54.5384 82.847L50.5208 85.1818L46.9478 83.1189L50.9654 80.7842L54.5384 82.847Z" fill="#384E85"/>
<path d="M46.4431 71.9251L42.431 74.2566L40.7027 73.2588L44.7148 70.9272L46.4431 71.9251Z" fill="#384E85"/>
<path d="M52.9501 73.3548L48.938 75.6864L45.365 73.6235L49.3771 71.292L52.9501 73.3548Z" fill="#384E85"/>
<path d="M41.0496 75.0594L37.032 77.3941L35.3037 76.3963L39.3213 74.0615L41.0496 75.0594Z" fill="#384E85"/>
<path d="M47.5566 76.4891L43.539 78.8239L39.9661 76.761L43.9836 74.4263L47.5566 76.4891Z" fill="#384E85"/>
<path d="M55.4337 77.1158L51.4217 79.4474L47.8542 77.3877L51.8663 75.0562L55.4337 77.1158Z" fill="#384E85"/>
<path d="M35.6563 78.1937L31.6387 80.5284L29.9104 79.5305L33.9279 77.1958L35.6563 78.1937Z" fill="#384E85"/>
<path d="M42.1632 79.6234L38.1456 81.9582L34.5726 79.8953L38.5902 77.5605L42.1632 79.6234Z" fill="#384E85"/>
<path d="M59.9318 79.7128L55.9197 82.0443L52.3467 79.9815L56.3588 77.6499L59.9318 79.7128Z" fill="#384E85"/>
<path d="M50.0402 80.2501L46.0227 82.5848L42.4553 80.5252L46.4728 78.1904L50.0402 80.2501Z" fill="#384E85"/>
<path d="M30.2574 81.3313L26.2398 83.6661L24.5115 82.6682L28.5291 80.3335L30.2574 81.3313Z" fill="#384E85"/>
<path d="M36.7642 82.7611L32.7466 85.0959L29.1736 83.033L33.1912 80.6982L36.7642 82.7611Z" fill="#384E85"/>
<path d="M44.6468 83.3843L40.6293 85.7191L37.0619 83.6595L41.0794 81.3247L44.6468 83.3843Z" fill="#384E85"/>
<path d="M31.3707 85.8954L27.3532 88.2301L23.7802 86.1673L27.7978 83.8325L31.3707 85.8954Z" fill="#384E85"/>
<path d="M49.1449 85.9813L45.1274 88.3161L41.5544 86.2532L45.572 83.9185L49.1449 85.9813Z" fill="#384E85"/>
<path d="M39.248 86.522L35.2304 88.8568L31.663 86.7971L35.6805 84.4624L39.248 86.522Z" fill="#384E85"/>
<path d="M43.7461 89.119L39.7285 91.4538L36.1555 89.3909L40.1731 87.0562L43.7461 89.119Z" fill="#384E85"/>
<path d="M64.661 82.1756L44.2265 94.0509L40.6535 91.988L61.088 80.1128L64.661 82.1756Z" fill="#384E85"/>
<path d="M38.3525 92.2533L34.3349 94.588L30.762 92.5252L34.7795 90.1904L38.3525 92.2533Z" fill="#384E85"/>
<path d="M33.8545 89.6563L24.4435 95.1254L20.876 93.0658L30.2871 87.5967L33.8545 89.6563Z" fill="#384E85"/>
<path d="M32.9536 95.391L28.9415 97.7225L25.3685 95.6597L29.3806 93.3281L32.9536 95.391Z" fill="#384E85"/>
<path d="M42.8506 94.8505L33.4396 100.32L29.8666 98.2567L39.2776 92.7876L42.8506 94.8505Z" fill="#384E85"/>
<path d="M24.8637 84.4656L20.8462 86.8004L19.1179 85.8025L23.1354 83.4678L24.8637 84.4656Z" fill="#384E85"/>
<path d="M68.0278 59.3816L64.0103 61.7164L62.282 60.7185L66.2995 58.3838L68.0278 59.3816Z" fill="#384E85"/>
<path d="M58.3489 70.2171L54.3313 72.5519L50.7583 70.489L54.7759 68.1543L58.3489 70.2171Z" fill="#384E85"/>
<path d="M69.8289 79.1722L65.8113 81.507L62.2383 79.4441L66.2559 77.1094L69.8289 79.1722Z" fill="#384E85"/>
<path d="M65.3309 76.5755L61.3133 78.9103L57.7403 76.8474L61.7579 74.5127L65.3309 76.5755Z" fill="#384E85"/>
<path d="M60.8327 73.9781L56.8151 76.3129L53.2477 74.2532L57.2653 71.9185L60.8327 73.9781Z" fill="#384E85"/>
<path d="M80.6212 72.9003L76.6037 75.235L73.0307 73.1721L77.0483 70.8374L80.6212 72.9003Z" fill="#384E85"/>
<path d="M75.2222 76.038L71.2101 78.3695L67.6371 76.3067L71.6492 73.9751L75.2222 76.038Z" fill="#384E85"/>
<path d="M25.9717 89.0326L19.9509 92.5315L16.3779 90.4687L22.3988 86.9697L25.9717 89.0326Z" fill="#384E85"/>
<path d="M13.8058 53.4836C14.5837 53.0345 15.0429 53.1328 15.3716 53.4306L14.9301 54.1465C14.6477 53.8618 14.2852 53.885 13.8423 54.1407C12.9412 54.6609 12.3697 55.7931 12.3728 56.8817C12.3759 57.9658 12.952 58.4443 13.8531 57.9241C14.2959 57.6684 14.6574 57.2603 14.9372 56.6599L15.3814 56.8688C15.0554 57.549 14.5982 58.1764 13.8203 58.6255C12.5495 59.3592 11.6914 58.7288 11.6873 57.2774C11.6832 55.826 12.535 54.2173 13.8058 53.4836Z" fill="#D9DDF6"/>
<path d="M16.6706 55.8411C16.9325 55.6899 17.1566 55.8176 17.1574 56.1185C17.1583 56.4238 16.9356 56.805 16.6737 56.9562C16.408 57.1096 16.1878 56.9841 16.187 56.6788C16.1861 56.3779 16.4049 55.9945 16.6706 55.8411Z" fill="#D9DDF6"/>
<path d="M17.0032 52.6412C17.193 52.3146 17.1935 51.9607 17.0043 51.8508C16.8152 51.7409 16.508 51.9165 16.3182 52.2431C16.1284 52.5697 16.1278 52.9236 16.317 53.0335C16.5062 53.1435 16.8134 52.9678 17.0032 52.6412Z" fill="#D9DDF6"/>
<path d="M18.1441 49.0288L20.2555 54.9901L19.7356 55.2902L17.6242 49.329L18.1441 49.0288Z" fill="#D9DDF6"/>
<path d="M22.2589 45.9663L25.9446 48.0711L22.2828 54.4181L21.6917 54.0812L24.7739 48.747L21.6716 46.9835L22.2589 45.9663Z" fill="#D9DDF6"/>
<path d="M30.0603 48.0796L30.0648 49.6637L26.21 51.8893L26.2055 50.3051L30.0603 48.0796Z" fill="#D9DDF6"/>
</svg>
