<svg width="19" height="16" viewBox="0 0 19 16" fill="none" xmlns="http://www.w3.org/2000/svg">
<path d="M16.8377 4.22435C16.8497 4.39092 16.8497 4.55753 16.8497 4.7241C16.8497 9.80479 12.9826 15.6589 5.91483 15.6589C3.73738 15.6589 1.71463 15.0283 0.0131226 13.9336C0.322498 13.9693 0.619933 13.9812 0.941211 13.9812C2.73787 13.9812 4.3918 13.3744 5.71255 12.3392C4.02295 12.3035 2.60701 11.197 2.11916 9.67392C2.35715 9.7096 2.59511 9.7334 2.845 9.7334C3.19005 9.7334 3.53513 9.68579 3.85638 9.60254C2.09539 9.24555 0.774602 7.69875 0.774602 5.83067V5.78309C1.28622 6.06866 1.8812 6.24714 2.51178 6.27091C1.4766 5.58077 0.798408 4.40283 0.798408 3.07017C0.798408 2.35627 0.988751 1.70185 1.32193 1.13071C3.21382 3.46284 6.0576 4.98583 9.24639 5.15244C9.18691 4.86687 9.15121 4.56944 9.15121 4.27196C9.15121 2.15399 10.8646 0.428711 12.9945 0.428711C14.101 0.428711 15.1005 0.892755 15.8025 1.64237C16.6711 1.4758 17.504 1.15452 18.2417 0.714279C17.9561 1.60669 17.3493 2.35631 16.5521 2.83222C17.3256 2.74897 18.0752 2.53475 18.7653 2.23731C18.2418 2.99879 17.5874 3.67698 16.8377 4.22435V4.22435Z" fill="black"/>
</svg>
