<svg width="18" height="18" viewBox="0 0 18 18" fill="none" xmlns="http://www.w3.org/2000/svg">
<path d="M8.96771 4.67729C6.63833 4.67729 4.75945 6.55618 4.75945 8.88555C4.75945 11.2149 6.63833 13.0938 8.96771 13.0938C11.2971 13.0938 13.176 11.2149 13.176 8.88555C13.176 6.55618 11.2971 4.67729 8.96771 4.67729ZM8.96771 11.6215C7.4624 11.6215 6.23179 10.3945 6.23179 8.88555C6.23179 7.37659 7.45874 6.14964 8.96771 6.14964C10.4767 6.14964 11.7036 7.37659 11.7036 8.88555C11.7036 10.3945 10.473 11.6215 8.96771 11.6215V11.6215ZM14.3297 4.50515C14.3297 5.05087 13.8902 5.48672 13.3481 5.48672C12.8024 5.48672 12.3665 5.04721 12.3665 4.50515C12.3665 3.9631 12.8061 3.52359 13.3481 3.52359C13.8902 3.52359 14.3297 3.9631 14.3297 4.50515ZM17.1169 5.50137C17.0546 4.18651 16.7543 3.02182 15.791 2.06224C14.8314 1.10265 13.6668 0.802322 12.3519 0.736396C10.9968 0.659483 6.935 0.659483 5.57986 0.736396C4.26867 0.798659 3.10398 1.09899 2.14073 2.05857C1.17748 3.01816 0.880813 4.18285 0.814887 5.4977C0.737974 6.85284 0.737974 10.9146 0.814887 12.2697C0.87715 13.5846 1.17748 14.7493 2.14073 15.7089C3.10398 16.6685 4.265 16.9688 5.57986 17.0347C6.935 17.1116 10.9968 17.1116 12.3519 17.0347C13.6668 16.9725 14.8314 16.6721 15.791 15.7089C16.7506 14.7493 17.0509 13.5846 17.1169 12.2697C17.1938 10.9146 17.1938 6.85651 17.1169 5.50137V5.50137ZM15.3662 13.7238C15.0805 14.4416 14.5275 14.9947 13.8059 15.284C12.7255 15.7125 10.1617 15.6136 8.96771 15.6136C7.77372 15.6136 5.20628 15.7089 4.12949 15.284C3.41163 14.9983 2.85859 14.4453 2.56925 13.7238C2.14073 12.6433 2.23962 10.0795 2.23962 8.88555C2.23962 7.69157 2.14439 5.12412 2.56925 4.04734C2.85492 3.32948 3.40797 2.77643 4.12949 2.48709C5.20994 2.05857 7.77372 2.15746 8.96771 2.15746C10.1617 2.15746 12.7291 2.06224 13.8059 2.48709C14.5238 2.77277 15.0768 3.32581 15.3662 4.04734C15.7947 5.12779 15.6958 7.69157 15.6958 8.88555C15.6958 10.0795 15.7947 12.647 15.3662 13.7238Z" fill="black"/>
</svg>
